<?xml version="1.0" encoding="utf-8"?>
<!-- Generator: Adobe Illustrator 19.2.1, SVG Export Plug-In . SVG Version: 6.00 Build 0)  -->
<svg version="1.1" id="Layer_1" xmlns="http://www.w3.org/2000/svg" xmlns:xlink="http://www.w3.org/1999/xlink" x="0px" y="0px"
	 viewBox="0 0 191.2 36.3" style="enable-background:new 0 0 191.2 36.3;" xml:space="preserve">
<style type="text/css">
	.st0{clip-path:url(#SVGID_2_);fill:#FFFFFF;}
	.st1{clip-path:url(#SVGID_2_);fill:#F89821;}
	.st2{clip-path:url(#SVGID_4_);}
	.st3{clip-path:url(#SVGID_6_);}
	.st4{clip-path:url(#SVGID_8_);fill:url(#SVGID_9_);}
	.st5{clip-path:url(#SVGID_11_);fill:#E76E24;}
	.st6{clip-path:url(#SVGID_13_);}
	.st7{clip-path:url(#SVGID_15_);}
	.st8{clip-path:url(#SVGID_17_);fill:url(#SVGID_18_);}
	.st9{clip-path:url(#SVGID_20_);fill:#E76E24;}
	.st10{clip-path:url(#SVGID_22_);}
	.st11{clip-path:url(#SVGID_24_);}
	.st12{clip-path:url(#SVGID_26_);fill:url(#SVGID_27_);}
	.st13{clip-path:url(#SVGID_29_);fill:#FFFFFF;}
	.st14{clip-path:url(#SVGID_31_);}
	.st15{clip-path:url(#SVGID_33_);fill:#FFFFFF;}
	.st16{clip-path:url(#SVGID_35_);fill:#FFFFFF;}
	.st17{clip-path:url(#SVGID_37_);fill:#FFFFFF;}
	.st18{clip-path:url(#SVGID_39_);fill:#FFFFFF;}
	.st19{clip-path:url(#SVGID_41_);}
	.st20{clip-path:url(#SVGID_43_);fill:#FFFFFF;}
	.st21{clip-path:url(#SVGID_45_);}
	.st22{clip-path:url(#SVGID_47_);}
	.st23{clip-path:url(#SVGID_49_);fill:url(#SVGID_50_);}
</style>
<g>
	<defs>
		<rect id="SVGID_1_" y="-3.9" width="200.8" height="43"/>
	</defs>
	<clipPath id="SVGID_2_">
		<use xlink:href="#SVGID_1_"  style="overflow:visible;"/>
	</clipPath>
	<path class="st0" d="M169.9,228.5l-4.4-6.3l25.4-16.9c0.2-0.1,0.2-0.3,0.1-0.5c-0.1-0.2-0.3-0.2-0.4-0.2l-29.6,9.2l-9.3-27.8
		c-0.1-0.2-0.2-0.3-0.4-0.2c-0.2,0-0.3,0.2-0.3,0.4l0.1,28.7l-29,0c-0.2,0-0.3,0.1-0.4,0.3c0,0.2,0.1,0.4,0.2,0.4l27.5,8.9l-1.6,4
		H169.9z"/>
	<path class="st1" d="M279.3-63c-0.7-0.4-1.8-0.6-3.1-0.6c-0.6,0-1.1,0-1.4-0.1c-0.1,0-0.2-0.1-0.2-0.1c0-0.5,0.5-1.3,1.6-2.2
		c1-0.9,1.8-1.3,2.2-1.3c0,0,0,0,0.1,0c0.1,0,0.3,0.1,0.5,0.2c0.3,0.2,0.4,0.3,0.7,0.3c0.2,0,0.5-0.1,0.6-0.3
		c0.2-0.2,0.2-0.4,0.2-0.7c0-0.5-0.4-0.9-0.9-1.2c-0.4-0.2-0.8-0.4-1.2-0.4c-1.2,0-2.4,0.8-3.9,2.2c-1.4,1.4-2.2,2.6-2.2,3.7
		c0,0.6,0.5,1,1.1,1.2c0.4,0.2,0.9,0.3,1.4,0.3l2.6,0.1c0.3,0,0.6,0.1,0.8,0.3c0.3,0.2,0.4,0.4,0.4,0.6c0,0.3-0.4,0.9-1.4,1.4
		c-0.9,0.5-1.7,0.7-2.4,0.7c-0.4-0.1-0.3,0-0.4-0.2c0-0.1,0-0.1,0-0.2c0.1-0.2,0.1-0.5,0.2-0.8l0-0.3l-0.3-0.1
		c-0.1,0-0.2-0.1-0.3-0.1c-0.4,0-0.7,0.3-1,0.7c-0.2,0.3-0.3,0.6-0.3,0.9c0,0.6,0.3,1.2,0.8,1.5c0.4,0.3,0.9,0.5,1.5,0.5h0
		c1.1,0,2.2-0.4,3.3-1.2c1.2-0.8,1.9-1.9,1.9-3C280.4-61.9,280-62.6,279.3-63 M291.5-60.5c-0.5,0-0.9,0.4-1,0.8c0,0,0,0-0.1,0
		c-0.1,0-0.1,0-0.1,0c0,0,0,0,0,0c-0.1,0-0.3-0.3-0.3-1.2c0-0.4,0.2-1.9,0.7-4.2c0-0.1,0-0.2,0-0.3c0-0.2-0.1-0.4-0.2-0.6
		c0.3-0.3,0.5-0.8,0.5-1.4c0-0.8-0.2-1.4-0.7-1.7c-0.3-0.2-0.6-0.3-0.9-0.3c-0.9,0-1.8,0.5-3,1.5c-1.4,1.2-2.8,2.8-4,4.6
		c-1.2,2-1.9,3.5-1.9,4.8c0,0.6,0.2,1.2,0.6,1.5c0.3,0.2,0.6,0.3,0.9,0.3h0c1,0,2.1-0.7,3.5-2c0.8-0.8,1.6-1.6,2.3-2.5
		c0.1,1.5,0.5,2.5,1.5,2.9c0.2,0.1,0.5,0.1,0.8,0.1c0.9,0,1.6-0.5,1.9-1.3c0.1-0.2,0.1-0.3,0.1-0.5c0-0.2,0-0.4-0.2-0.5
		C291.9-60.5,291.7-60.5,291.5-60.5 M288.7-66.7c0,0.1-0.1,0.2-0.1,0.3c0,0.1,0,0.3,0.1,0.4c-0.2,0.2-0.3,0.4-0.3,0.7
		c-0.1,0.5-0.3,1.1-0.8,1.8c-0.1,0.1-0.7,0.9-1.9,2.3c-1.7,2-3,3-3.4,2.9c0,0-0.1,0-0.1,0c0,0,0,0,0,0c0,0,0,0,0-0.1
		c0-0.8,0.9-2.6,2.9-5.2c1.7-2.2,3-3.5,3.8-3.9C288.9-67.2,288.9-67,288.7-66.7 M302.6-67.6c0-0.2-0.1-0.5-0.3-0.7
		c-0.2-0.2-0.4-0.2-0.7-0.2c-1.3,0-2.3,1.2-3.4,3.2c-0.3,0.7-1,2.2-1.9,4.6l-0.1,0.2c0,0,0-0.1,0-0.1c-1-2.6-1.5-3.9-1.6-4
		c-0.4-1-0.8-1.7-1.1-2.3c-0.3-0.5-0.5-0.9-1-0.9c-0.2,0-0.5,0.1-0.7,0.2c-0.3,0.2-0.5,0.5-0.5,0.8c0,0.1,0,0.3,0.1,0.4
		c0.3,0.6,0.6,1.1,0.9,1.7c0.6,1.1,1,2,1.3,2.6c0.5,1.5,0.9,2.6,1.1,3.2c0.2,0.5,0.3,0.9,0.5,1.2c0.2,0.3,0.4,0.5,0.8,0.6
		c0.4,0,0.6-0.3,0.8-0.6c0.2-0.3,0.4-0.8,0.7-1.3c0.7-1.6,1.3-3.2,2-4.8c0.5-1.1,1-2,1.4-2.5c0.2-0.3,0.4-0.5,0.5-0.6
		c0.1-0.1,0.2-0.1,0.2-0.1v0l0,0c0.1,0,0.1,0,0.2,0c0.1,0,0.1,0,0.2,0C302.3-66.9,302.6-67.2,302.6-67.6 M402.5-70.1L402.5-70.1
		c0.3,0,0.6-0.1,0.8-0.3c0.2-0.2,0.3-0.5,0.3-0.9c0-0.3-0.1-0.6-0.3-0.8c-0.2-0.2-0.5-0.3-0.8-0.3c-0.3,0-0.6,0.2-0.8,0.4
		c-0.2,0.2-0.3,0.5-0.3,0.8c0,0.3,0.1,0.5,0.3,0.7C401.9-70.3,402.2-70.1,402.5-70.1 M304.1-70.1L304.1-70.1c0.3,0,0.6-0.1,0.8-0.3
		c0.2-0.2,0.3-0.5,0.3-0.9c0-0.3-0.1-0.6-0.3-0.8c-0.2-0.2-0.5-0.3-0.8-0.3c-0.3,0-0.6,0.2-0.8,0.4c-0.2,0.2-0.3,0.5-0.3,0.8
		c0,0.3,0.1,0.5,0.3,0.7C303.5-70.3,303.8-70.1,304.1-70.1 M429.9-63c-0.7-0.4-1.8-0.6-3.1-0.6c-0.6,0-1.1,0-1.4-0.1
		c-0.1,0-0.2-0.1-0.2-0.1c0-0.5,0.5-1.3,1.6-2.2c1-0.9,1.8-1.3,2.2-1.3c0,0,0,0,0.1,0c0.1,0,0.3,0.1,0.5,0.2
		c0.3,0.2,0.4,0.3,0.7,0.3c0.2,0,0.5-0.1,0.7-0.3c0.2-0.2,0.2-0.4,0.2-0.7c0-0.5-0.4-0.9-0.9-1.2c-0.4-0.2-0.8-0.4-1.2-0.4
		c-1.2,0-2.4,0.8-3.9,2.2c-1.4,1.4-2.2,2.6-2.2,3.7h-0.8l-0.1,0.2c-0.4,1-1.2,2-2.3,3c-1.2,1-2.2,1.5-2.9,1.5c-0.9-0.1-1-0.2-1-0.7
		c0-0.5,0.1-1.1,0.3-1.8c0.1-0.4,0.2-0.7,0.3-0.9c0.3,0.2,0.7,0.2,1.2,0.2c1.3,0,2.5-0.8,3.4-2.3c0.8-1.2,1.2-2.3,1.2-3.3
		c0-0.4-0.1-0.7-0.3-1.1c-0.3-0.5-0.7-0.8-1.3-0.8c-1.5,0-2.9,1.2-4.4,3.4c-1.4,2-2.2,3.8-2.3,5.3c0,0.1,0,0.2,0,0.3
		c0,0.9,0.2,1.6,0.7,2.2c0.5,0.7,1.3,1,2.3,1h0c1.3,0,2.6-0.5,3.8-1.5c1.3-1,2.2-2.4,2.8-4c0,0,0,0,0-0.1c0.2,0.1,0.4,0.3,0.6,0.4
		c0.4,0.2,0.9,0.3,1.4,0.3l2.6,0.1c0.3,0,0.6,0.1,0.8,0.3c0.3,0.2,0.4,0.4,0.4,0.6c0,0.3-0.4,0.9-1.4,1.4c-0.9,0.5-1.7,0.7-2.4,0.7
		c-0.4-0.1-0.3,0-0.4-0.2c0-0.1,0-0.1,0-0.2c0.1-0.2,0.1-0.5,0.2-0.8l0-0.3l-0.3-0.1c-0.1,0-0.2-0.1-0.3-0.1c-0.4,0-0.7,0.3-1,0.7
		c-0.2,0.3-0.3,0.6-0.3,0.9c0,0.6,0.3,1.2,0.8,1.5c0.4,0.3,0.9,0.5,1.5,0.5h0c1.1,0,2.2-0.4,3.3-1.2c1.2-0.8,1.9-1.9,1.9-3
		C431.1-61.9,430.7-62.6,429.9-63 M420.6-67.6L420.6-67.6l-0.1-0.2L420.6-67.6z M419.9-67c0.2-0.3,0.4-0.4,0.7-0.5c0,0,0,0,0,0
		c0,0.7-0.4,1.5-1.1,2.5c-0.8,1-1.5,1.4-2,1.4c0,0,0,0-0.1,0c-0.1,0-0.1,0-0.2,0C417.5-64.1,418.4-65.3,419.9-67 M326.1-65.9
		c0.2-0.1,0.5-0.2,0.6-0.5c0.2-0.3,0.2-0.6,0.2-1c0-0.5-0.1-1-0.4-1.5c-0.3-0.6-0.9-1-1.5-1c-1.5,0-3.1,1.3-5.1,3.8
		c-2,2.5-3,4.5-3,6.2c0,0.2,0,0.4,0.1,0.6l-0.3-0.1l-0.2-0.1l-0.2,0.2c-0.1,0.1-0.3,0.2-0.3,0.3c0,0-0.1,0-0.1,0.1l0,0c0,0,0,0,0,0
		c0,0,0,0,0,0c-0.1-0.1-0.4-0.6-0.5-1.6c0-0.2-0.1-1-0.3-2.4c-0.1-0.9-0.2-1.7-0.2-2.6l0,0l0,0c-0.2-1.2-0.9-2-1.9-2
		c-0.7,0-1.2,0.5-1.9,1.4c-0.5,0.6-1,1.4-1.7,2.3l0.4-2l0-0.1c-0.1-0.2-0.1-0.4-0.2-0.6l0,0l0,0c-0.2-0.3-0.5-0.5-0.9-0.5
		c-0.7,0-1.2,0.7-1.2,1.5c-0.1,0.8-0.1,1.5-0.1,1.9c-0.5,3-0.7,4.8-0.8,5.5c-0.1-0.1-0.2-0.2-0.3-0.3l-0.2-0.2l-0.2,0.1
		c-0.2,0.1-0.4,0.3-0.6,0.4c-0.2,0-0.5-0.2-0.7-0.9c-0.1-0.5-0.2-1.1-0.3-1.6c0-0.1,0-0.2,0-0.4c0-0.2,0-0.5,0-0.9
		c0.1-1.5,0.3-2.6,0.5-3.2c0.3-0.6,0.4-1,0.4-1.4c0-0.3-0.1-0.6-0.2-0.8c-0.2-0.2-0.5-0.3-0.7-0.3c-0.5,0-0.8,0.4-1,0.9
		c-0.2,0.5-0.4,1.1-0.6,2c-0.2,1.2-0.3,2.2-0.3,3.1c0,0.9,0.2,1.9,0.5,2.8c0.5,1.4,1.2,2.3,2.3,2.3c0.3,0,0.6-0.1,0.9-0.3
		c0.2-0.1,0.5-0.3,0.6-0.6c0,0.1,0.1,0.2,0.2,0.2c0.2,0.2,0.4,0.2,0.7,0.2h0c0.5,0,0.9-0.4,1-0.9c0.5-1.6,1.3-3.3,2.5-5.2
		c0.6-1,1.1-1.7,1.5-2.1c0.2-0.2,0.3-0.3,0.4-0.4c0,0.2,0.1,0.4,0.1,0.7c0.1,1.2,0.2,2.2,0.3,2.9c0.2,1.5,0.4,2.7,0.9,3.5
		c0.4,0.8,1.1,1.3,1.9,1.3c0.3,0,0.6-0.1,0.9-0.3c0.3-0.2,0.5-0.4,0.6-0.7c0,0,0,0,0,0c0.3,0.5,0.9,0.7,1.5,0.7
		c1.2,0,2.3-0.8,3.5-2.2c0.5-0.5,1.2-1.7,2.4-3.4c0.2-0.2,0.3-0.4,0.4-0.6c0.1,0.2,0.2,0.6,0.3,1.1c0.1,0.8,0.2,1.9,0.2,3.4
		c0,1.6-0.3,3.3-0.8,5c-0.9,2.6-2.1,3.7-3.7,3.7c-0.7,0-1.4-0.3-2.1-1.1c-0.6-0.7-0.9-1.5-0.9-2.4c0,0,0-0.1,0-0.1
		c0-0.2,0-0.4-0.2-0.6c-0.1-0.2-0.4-0.3-0.6-0.3c-0.3,0-0.6,0.1-0.7,0.4c-0.2,0.2-0.2,0.5-0.2,0.8c0,1.3,0.5,2.5,1.5,3.6
		c1,1.1,2.1,1.7,3.4,1.7h0c1.8,0,3.3-1.1,4.4-3.2c1.2-2.1,1.8-4.6,1.8-7.6c0-1.2-0.1-2.4-0.3-3.6C327-64.5,326.7-65.5,326.1-65.9
		 M324.6-65.6c-0.3,0.3-0.7,0.7-1.1,1.3c-1.3,1.7-2.2,2.8-2.6,3.2c-0.9,1-1.7,1.5-2.1,1.6c0-0.1,0-0.1,0-0.2c0-0.5,0.2-1.2,0.7-2.1
		c0.4-0.8,0.8-1.4,1.1-1.8l0,0l0,0c0.5-0.8,1.1-1.7,2-2.6c1.1-1.2,1.9-1.8,2.4-1.8c0,0.1,0,0.1,0,0.3c0,0.1,0,0.1,0,0.2
		c0,0.1,0,0.2,0,0.3c0,0.4,0.1,0.7,0.2,1c0,0.1,0.1,0.2,0.2,0.2C325-66,324.8-65.9,324.6-65.6 M385-65.9c0.2-0.1,0.5-0.2,0.6-0.5
		c0.2-0.3,0.2-0.6,0.2-1c0-0.5-0.1-1-0.4-1.5c-0.3-0.6-0.9-1-1.5-1c-1.5,0-3.1,1.3-5.1,3.8c-2,2.5-3,4.5-3,6.2c0,0.2,0,0.4,0.1,0.6
		l-0.3-0.1l-0.2-0.1l-0.2,0.2c-0.1,0.1-0.3,0.2-0.3,0.3c0,0-0.1,0-0.1,0.1l0,0c0,0,0,0,0,0c0,0,0,0,0,0c-0.1-0.1-0.4-0.6-0.5-1.6
		c0-0.2-0.1-1-0.3-2.4c-0.1-0.9-0.2-1.7-0.2-2.6l0,0l0,0c-0.2-1.2-0.9-2-1.9-2c-0.7,0-1.2,0.5-1.9,1.4c-0.5,0.6-1,1.4-1.7,2.3l0.4-2
		l0-0.1c-0.1-0.2-0.1-0.4-0.2-0.6l0,0l0,0c-0.2-0.3-0.5-0.5-0.9-0.5c-0.7,0-1.1,0.7-1.2,1.5c-0.1,0.8-0.1,1.5-0.1,1.9
		c-0.2,1.4-0.4,2.6-0.5,3.5c-0.2,0.1-0.4,0.3-0.5,0.4c-0.2,0.2-0.4,0.3-0.4,0.3c-0.2,0-0.4-0.1-0.6-0.8c-0.2-0.6-0.3-1.7-0.3-3.1
		c0-0.7,0.1-1.5,0.2-2.3c0.2-0.8,0.2-1.2,0.2-1.4c0-0.3-0.1-0.6-0.3-0.8c-0.2-0.2-0.5-0.3-0.8-0.3c-0.4,0-0.7,0.2-0.9,0.5
		c-0.2,0.3-0.3,0.6-0.3,1c0,0.7-0.4,1.9-1.2,3.5c-0.7,1.4-1.4,2.6-2.2,3.5c-0.5,0.7-1,1-1.2,1.1c0,0,0-0.1,0-0.1c0-0.1,0-0.4,0-0.6
		c0-1.1,0.6-3.3,1.7-6.4l0.2-0.6c0.1-0.2,0.1-0.3,0.1-0.4l0,0v0c0-0.3-0.2-0.6-0.5-0.7c-0.2-0.2-0.5-0.2-0.8-0.2
		c-0.6,0.1-0.7,0.5-1,1.2c-0.3,0.6-0.5,1.6-0.8,2.8c-0.5,2.2-0.8,3.5-0.8,4.1c0,0.9,0.1,1.6,0.4,2.1c0.2,0.5,0.7,0.8,1.3,0.8
		c0,0,0,0,0,0c1.3,0,2.4-0.9,3.4-2.4c0.2-0.4,0.7-1.2,1.3-2.6c0.1,1.1,0.4,1.9,0.7,2.5c0.4,0.9,1.2,1.4,2,1.4c0.2,0,0.5-0.1,0.7-0.2
		c0,0.1,0,0.2,0,0.2c0,0,0,0.1,0,0.1c0,0.2,0.1,0.5,0.3,0.7c0.2,0.2,0.4,0.2,0.7,0.2h0c0.5,0,0.9-0.4,1-0.9c0.5-1.6,1.3-3.3,2.5-5.2
		c0.6-1,1.1-1.7,1.5-2.1c0.2-0.2,0.3-0.3,0.4-0.4c0,0.2,0.1,0.4,0.1,0.7c0.1,1.2,0.2,2.2,0.3,2.9c0.2,1.5,0.4,2.7,0.9,3.5
		c0.4,0.8,1.1,1.3,1.9,1.3c0.3,0,0.6-0.1,0.9-0.3c0.3-0.2,0.5-0.4,0.6-0.7c0,0,0,0,0,0c0.3,0.5,0.9,0.7,1.5,0.7
		c1.2,0,2.3-0.8,3.5-2.2c0.5-0.5,1.3-1.7,2.4-3.4c0.2-0.2,0.3-0.4,0.4-0.6c0.1,0.2,0.2,0.6,0.3,1.1c0.1,0.8,0.2,1.9,0.2,3.4
		c0,1.6-0.3,3.3-0.8,5c-0.9,2.6-2.1,3.7-3.7,3.7c-0.8,0-1.4-0.3-2.1-1.1c-0.6-0.7-0.9-1.5-0.9-2.4c0,0,0-0.1,0-0.1
		c0-0.2,0-0.4-0.2-0.6c-0.1-0.2-0.4-0.3-0.6-0.3c-0.3,0-0.6,0.1-0.7,0.4c-0.2,0.2-0.2,0.5-0.2,0.8c0,1.3,0.5,2.5,1.5,3.6
		c1,1.1,2.1,1.7,3.4,1.7h0c1.8,0,3.3-1.1,4.4-3.2c1.2-2.1,1.8-4.6,1.8-7.6c0-1.2-0.1-2.4-0.3-3.6C385.9-64.5,385.6-65.5,385-65.9
		 M383.5-65.6c-0.3,0.3-0.7,0.7-1.1,1.3c-1.3,1.7-2.2,2.8-2.6,3.2c-0.9,1-1.7,1.5-2.1,1.6c0-0.1,0-0.1,0-0.2c0-0.5,0.2-1.2,0.7-2.1
		c0.4-0.8,0.8-1.4,1.1-1.8l0,0l0,0c0.5-0.8,1.1-1.7,2-2.6c1.1-1.2,1.9-1.8,2.4-1.8c0,0.1,0,0.1,0,0.3c0,0.1,0,0.1,0,0.2
		c0,0.1,0,0.2,0,0.3c0,0.4,0.1,0.7,0.2,1c0,0.1,0.1,0.2,0.2,0.2C383.9-66,383.7-65.9,383.5-65.6 M400.1-57.7L400.1-57.7l-0.3-0.4
		l-0.1-0.1H399l-0.1,0.2c-0.1,0.1-0.1,0.1-0.2,0.1c-0.4,0-0.7-0.2-1-1c-0.3-0.8-0.4-2-0.4-3.6c0-2.7,0.1-5.2,0.4-7.3
		c0.1-0.5,0.2-1.2,0.4-2.2l0.2-1c0-0.2,0.1-0.4,0.1-0.5l0,0v0c0-0.3-0.1-0.6-0.3-0.8c-0.2-0.2-0.5-0.3-0.8-0.3
		c-0.3,0-0.5,0.3-0.6,0.4c-0.3,0.6-0.6,1.9-0.8,3.9c-0.3,2.4-0.4,4.9-0.4,7.3c0,0.5,0,0.9,0,1.3l0.4,0l-0.4,0
		c0.1,1.7,0.4,3.1,1.1,4.1c0.5,0.9,1.3,1.4,2.1,1.4h0c0.6,0,1.1-0.3,1.5-0.7l0.1-0.1v-0.1C400.1-57.4,400.1-57.5,400.1-57.7
		L400.1-57.7z M404.5-58.6l-0.2-0.2l-0.2,0.1c-0.2,0.1-0.4,0.3-0.6,0.4c-0.2,0-0.5-0.2-0.7-0.9c-0.1-0.5-0.2-1.1-0.3-1.6
		c0-0.1,0-0.2,0-0.4c0-0.2,0-0.5,0-0.9c0.1-1.5,0.3-2.6,0.5-3.2c0.3-0.6,0.4-1,0.4-1.4c0-0.3-0.1-0.6-0.2-0.8
		c-0.2-0.2-0.5-0.3-0.7-0.3c-0.5,0-0.8,0.4-1,0.9c-0.2,0.5-0.4,1.1-0.6,2c-0.2,1.2-0.3,2.2-0.3,3.1c0,0.9,0.2,1.9,0.5,2.8
		c0.5,1.4,1.2,2.3,2.3,2.3c0.3,0,0.6-0.1,0.9-0.3c0.4-0.2,0.7-0.5,0.7-1C404.9-58.2,404.7-58.5,404.5-58.6 M345.4-64.3
		c-0.2-0.3-0.5-1.6-0.7-3.6l0-0.2c-0.1-0.9-0.5-1.7-1.3-1.7c-0.3,0-0.6,0.1-0.8,0.3c-0.2,0.2-0.3,0.5-0.3,0.8c0,0.1,0,0.2,0,0.3
		c0,0.1,0,0.3,0,0.4c0,0.2,0,0.5-0.1,0.8c-0.2,1.2-0.9,2.9-2.2,4.9c-0.3,0.6-0.6,1.1-0.9,1.5c-0.3,0.5-0.6,0.8-0.8,1
		c-0.1,0.1-0.1,0.1-0.2,0.2c0,0,0,0,0-0.1c0-0.1,0-0.4,0-0.6c0-1.4,0.3-3,0.9-4.7c0.5-1.2,0.9-2.3,1.5-3.1c0.1-0.1,0.1-0.2,0.1-0.3
		c0-0.3-0.2-0.6-0.4-0.7c-0.2-0.2-0.5-0.3-0.7-0.3c0,0-0.1,0-0.1,0c-0.5,0.1-0.8,0.5-1.1,1.1c-0.3,0.6-0.6,1.5-1,2.7
		c-0.7,2.3-1,4-1,5.3c0,0.7,0.1,1.3,0.4,1.7c0.3,0.4,0.8,0.7,1.3,0.7c0.2,0,0.4,0,0.6-0.1c1.2-0.4,2.2-1.6,3.3-3.6
		c0.4-0.8,0.9-1.9,1.5-3.2c0.3,1.7,0.4,3.2,0.4,4.4c0,2.2-0.4,4.2-1.3,6c-1,2.1-2.3,3-3.9,3c-0.1,0-0.2,0-0.3,0
		c-0.7-0.1-1.3-0.3-1.8-0.8c-0.5-0.5-0.9-1-1.2-1.7c0-0.2-0.1-0.4-0.2-0.6c-0.1-0.3-0.4-0.7-0.8-0.7c-0.2,0-0.5,0.1-0.6,0.3
		c-0.2,0.2-0.2,0.4-0.2,0.7c0,0.9,0.5,1.9,1.5,2.9c1.1,1.2,2.4,1.8,3.8,1.8h0c2.4,0,4.3-1.6,5.6-4.5c0.9-2.1,1.4-4.2,1.4-6.3
		c0-1.1,0-2-0.1-2.6C345.6-63.6,345.5-64,345.4-64.3 M414.7-66.9L414.7-66.9L414.7-66.9c0.1,0,0.1,0,0.2,0c0.1,0,0.1,0,0.2,0
		c0.3,0,0.6-0.3,0.6-0.7c0-0.2-0.1-0.5-0.3-0.7c-0.2-0.2-0.4-0.2-0.7-0.2c-1.3,0-2.3,1.2-3.4,3.2c-0.3,0.7-1,2.2-1.9,4.6l-0.1,0.2
		c0,0,0-0.1,0-0.1c-1-2.6-1.5-3.9-1.6-4c-0.4-1-0.8-1.7-1.1-2.3c-0.3-0.5-0.5-0.9-1-0.9c-0.2,0-0.5,0.1-0.7,0.2
		c-0.3,0.2-0.5,0.5-0.5,0.8c0,0.1,0,0.3,0.1,0.4c0.3,0.6,0.6,1.2,0.9,1.7c0.6,1.1,1,2,1.3,2.6c0.5,1.5,0.9,2.6,1.1,3.2
		c0.2,0.5,0.3,0.9,0.5,1.2c0.2,0.3,0.4,0.5,0.8,0.6c0.4,0,0.6-0.3,0.8-0.6c0.2-0.3,0.4-0.8,0.7-1.3c0.7-1.6,1.3-3.2,2-4.8
		c0.5-1.1,1-2,1.4-2.5c0.2-0.3,0.4-0.5,0.5-0.6C414.6-66.9,414.7-66.9,414.7-66.9 M352.4-68.8c-0.4,0-0.8,0.2-1.4,0.4
		c-0.5,0.2-0.9,0.5-1.1,0.8c-0.1,0-0.1,0-0.2,0c-1,0.1-1.5,1-2.2,2.7c-0.7,1.7-1,3.2-1,4.7c0,0.9,0.2,1.7,0.7,2.3c0.5,0.6,1.2,1,2,1
		h0c0.1,0,0.2,0,0.3,0l0-0.4l0,0.4c1.6-0.1,2.9-1.4,4.1-3.5c1-1.8,1.5-3.2,1.5-4.4V-65C355-67.3,354.1-68.8,352.4-68.8 M351.8-61.4
		c-1,1.9-2,2.8-2.8,2.7c-0.2,0-0.3-0.1-0.5-0.3c-0.1-0.3-0.2-0.7-0.2-1.4c0-1.5,0.7-3.2,2.1-5.1c0.3-0.4,0.4-0.6,0.5-0.9
		c0.6-0.5,1.1-0.8,1.5-0.8c0.2,0,0.3,0.1,0.5,0.3c0.1,0.3,0.2,0.8,0.2,1.5C353.1-64.4,352.7-63.1,351.8-61.4"/>
</g>
<g>
	<defs>
		<rect id="SVGID_3_" y="-3.9" width="200.8" height="43"/>
	</defs>
	<clipPath id="SVGID_4_">
		<use xlink:href="#SVGID_3_"  style="overflow:visible;"/>
	</clipPath>
	<g class="st2">
		<defs>
			<path id="SVGID_5_" d="M298.6-104.8h2.5c4.1,0,6,1.2,6,4.1c0,3.2-2.2,4.2-6.8,4.2h-1.8V-104.8z M316-112.6v8.3
				c-0.7-2.7-2.3-4.8-4.6-6.4c-2.5-1.7-5.5-1.9-9.5-1.9h-35.3v8.1h7v26.9h9.2v-26.9h6.7v26.9h9.2v-11.3l7.2,11.3h27.9l2.6-7.3
				L316-91.4v12.4L308-89.6c4.2-1.1,7.1-4,8.1-7.9v6.1h0l0,0v0l9.2,0l12.1,0v0l0-7.8h-12.1v-5.7h12.1l0-7.6l0.6,1.7l6.2,18.6l0,0
				l8.1-2.5l-5.4-17.9H316z M375.1-95.3c0-5.1,4.4-9.2,10-9.2c5.3,0,9.7,4.1,9.7,9.2c0,5.7-4.4,9.8-9.8,9.8
				C379.8-85.6,375.1-89.8,375.1-95.3 M412.6-104.8h2.5c4.1,0,6,1.2,6,4.1c0,3.2-2.2,4.2-6.8,4.2h-1.8V-104.8z M371.4-108.1
				c-1.9,1.7-3.3,3.8-4.3,5.9l3.5-10.4H361L356-95.8l9.9-3.1l-18.6,12.4l6.9,8.9h4.7l7.2-21.7c-0.3,1.2-0.4,2.5-0.4,3.8
				c0,5.2,1.8,9.5,5.3,13c3.7,3.6,8.5,5.5,14,5.5c5.2,0,10.2-1.9,13.8-5.5c2.2-2.1,3.8-4.7,4.6-7.5v12.3h9.2v-11.3l7.2,11.3h11.4
				l-9.2-12c5.3-1.4,8.5-5.6,8.5-11.3c0-4.3-1.7-7.6-5.1-9.8c-2.5-1.7-5.5-1.9-9.5-1.9h-12.5v12.2c-0.9-2.8-2.6-5.5-5-7.7
				c-3.6-3.4-8.4-5.2-13.4-5.2C379.7-113.3,375.1-111.5,371.4-108.1"/>
		</defs>
		<clipPath id="SVGID_6_">
			<use xlink:href="#SVGID_5_"  style="overflow:visible;"/>
		</clipPath>
		<g class="st3">
			<defs>
				<rect id="SVGID_7_" x="266.6" y="-113.3" width="164.6" height="36.3"/>
			</defs>
			<clipPath id="SVGID_8_">
				<use xlink:href="#SVGID_7_"  style="overflow:visible;"/>
			</clipPath>
			
				<radialGradient id="SVGID_9_" cx="-47.0201" cy="371.8195" r="1" gradientTransform="matrix(68.3262 0 0 63.7436 3553.6045 -23789.2402)" gradientUnits="userSpaceOnUse">
				<stop  offset="0" style="stop-color:#FCEE23"/>
				<stop  offset="0.4946" style="stop-color:#FBB041"/>
				<stop  offset="0.5297" style="stop-color:#F9AA3E"/>
				<stop  offset="0.8478" style="stop-color:#EB7F29"/>
				<stop  offset="1" style="stop-color:#E76E24"/>
			</radialGradient>
			<rect x="266.6" y="-113.3" class="st4" width="164.6" height="36.3"/>
		</g>
	</g>
</g>
<g>
	<defs>
		<rect id="SVGID_10_" y="-3.9" width="200.8" height="43"/>
	</defs>
	<clipPath id="SVGID_11_">
		<use xlink:href="#SVGID_10_"  style="overflow:visible;"/>
	</clipPath>
	<path class="st5" d="M437.8-80.1v1.2h2.4v1.2h-6.4v-2.5c0-1.3,0.9-2.1,2-2.1C436.9-82.2,437.8-81.5,437.8-80.1 M434.9-80.1v1.2h1.7
		v-1.2c0-0.6-0.3-0.9-0.9-0.9C435.3-81,434.9-80.6,434.9-80.1"/>
	<path class="st5" d="M440.2-86.5l-2.5,1.2v0.9h2.5v1.2h-6.4v-2.5c0-1.3,0.9-2.1,2-2.1c0.9,0,1.5,0.5,1.7,1.2l2.7-1.4V-86.5z
		 M434.9-85.5v1.2h1.7v-1.2c0-0.5-0.3-0.9-0.8-0.9C435.3-86.4,434.9-86,434.9-85.5"/>
	<path class="st5" d="M439.5-92.4c0.5,0.4,0.7,1,0.7,1.7c0,0.7-0.2,1.3-0.7,1.7c-0.6,0.6-1.4,0.6-2.5,0.6c-1.1,0-1.9,0-2.5-0.6
		c-0.4-0.4-0.7-1-0.7-1.7c0-0.7,0.2-1.3,0.7-1.7c0.6-0.6,1.4-0.6,2.5-0.6C438.1-93,438.9-93,439.5-92.4 M435.2-91.5
		c-0.2,0.2-0.3,0.5-0.3,0.8c0,0.3,0.1,0.6,0.3,0.8c0.3,0.2,0.6,0.3,1.8,0.3c1.2,0,1.5-0.1,1.8-0.3c0.2-0.2,0.3-0.5,0.3-0.8
		c0-0.3-0.1-0.6-0.3-0.8c-0.3-0.2-0.6-0.3-1.8-0.3C435.8-91.8,435.5-91.7,435.2-91.5"/>
	<path class="st5" d="M440.2-94.9c0,0.7-0.2,1.2-0.7,1.6l-0.8-0.8c0.2-0.2,0.4-0.4,0.4-0.8c0-0.6-0.4-1-1.1-1h-4.2v-1.2h4.3
		C439.5-97.1,440.2-96.1,440.2-94.9"/>
	<polygon class="st5" points="440.2,-98.3 433.8,-98.3 433.8,-102.5 434.9,-102.5 434.9,-99.6 436.4,-99.6 436.4,-102.1 
		437.5,-102.1 437.5,-99.6 439.1,-99.6 439.1,-102.5 440.2,-102.5 	"/>
	<path class="st5" d="M440.2-105.7c0,0.7-0.2,1.3-0.7,1.7c-0.3,0.3-0.6,0.4-1,0.5c-0.4,0.1-0.9,0.1-1.6,0.1c-0.7,0-1.2,0-1.6-0.1
		c-0.4-0.1-0.7-0.2-1-0.5c-0.5-0.5-0.7-1-0.7-1.7c0-1.2,0.7-2.1,2-2.3v1.3c-0.5,0.1-0.9,0.5-0.9,1.1c0,0.3,0.1,0.6,0.3,0.8
		c0.3,0.3,0.6,0.3,1.8,0.3c1.2,0,1.5-0.1,1.8-0.3c0.2-0.2,0.3-0.5,0.3-0.8c0-0.6-0.4-0.9-0.9-1.1v-1.3
		C439.5-107.8,440.2-106.9,440.2-105.7"/>
	<polygon class="st5" points="434.9,-111.1 440.2,-111.1 440.2,-109.9 434.9,-109.9 434.9,-108.2 433.8,-108.2 433.8,-112.8 
		434.9,-112.8 	"/>
	<polygon class="st5" points="252.3,-111.5 252.3,-106.3 251.1,-106.3 251.1,-111.5 249.4,-111.5 249.4,-112.7 254,-112.7 
		254,-111.5 	"/>
	<polygon class="st5" points="258.2,-106.3 258.2,-109 256,-109 256,-106.3 254.8,-106.3 254.8,-112.7 256,-112.7 256,-110 
		258.2,-110 258.2,-112.7 259.4,-112.7 259.4,-106.3 	"/>
	<polygon class="st5" points="260.4,-106.3 260.4,-112.7 264.6,-112.7 264.6,-111.5 261.6,-111.5 261.6,-110 264.1,-110 
		264.1,-108.9 261.6,-108.9 261.6,-107.4 264.6,-107.4 264.6,-106.3 	"/>
</g>
<g>
	<defs>
		<rect id="SVGID_12_" y="-3.9" width="200.8" height="43"/>
	</defs>
	<clipPath id="SVGID_13_">
		<use xlink:href="#SVGID_12_"  style="overflow:visible;"/>
	</clipPath>
	<g class="st6">
		<defs>
			<path id="SVGID_14_" d="M299,9h2.5c4.1,0,6,1.2,6,4.1c0,3.2-2.2,4.2-6.8,4.2H299V9z M316.4,1.1v8.3c-0.7-2.7-2.3-4.8-4.6-6.4
				c-2.5-1.7-5.5-1.9-9.5-1.9H267v8.1h7v26.9h9.2V9.3h6.7v26.9h9.2V24.9l7.2,11.3h27.9l2.6-7.3l-20.2-6.6v12.4l-8.1-10.6
				c4.2-1.1,7.1-4,8.1-7.9v6.1h0l0,0v0l9.2,0l12.1,0v0l0-7.8h-12.1V8.9h12.1l0-7.6l0.6,1.7l6.2,18.6l0,0l8.1-2.5l-5.4-17.9H316.4z
				 M375.5,18.4c0-5.1,4.4-9.2,10-9.2c5.3,0,9.7,4.1,9.7,9.2c0,5.7-4.4,9.8-9.8,9.8C380.2,28.2,375.5,23.9,375.5,18.4 M413,9h2.5
				c4.1,0,6,1.2,6,4.1c0,3.2-2.2,4.2-6.8,4.2H413V9z M371.8,5.6c-1.9,1.7-3.3,3.7-4.3,5.9l3.5-10.4h-9.5l-5.1,16.8l9.9-3.1
				l-18.6,12.4l6.9,8.9h4.7l7.2-21.7c-0.3,1.2-0.4,2.5-0.4,3.8c0,5.2,1.8,9.5,5.3,13c3.7,3.6,8.5,5.5,14,5.5
				c5.2,0,10.2-1.9,13.8-5.5c2.2-2.1,3.8-4.7,4.6-7.5v12.3h9.2V24.9l7.2,11.3h11.4l-9.2-12c5.3-1.4,8.5-5.6,8.5-11.3
				c0-4.3-1.7-7.6-5.1-9.8c-2.5-1.7-5.5-1.9-9.5-1.9h-12.5v12.2c-0.9-2.8-2.6-5.5-5-7.7c-3.6-3.4-8.4-5.2-13.4-5.2
				C380.1,0.5,375.5,2.2,371.8,5.6"/>
		</defs>
		<clipPath id="SVGID_15_">
			<use xlink:href="#SVGID_14_"  style="overflow:visible;"/>
		</clipPath>
		<g class="st7">
			<defs>
				<rect id="SVGID_16_" x="267" y="0.5" width="164.6" height="36.3"/>
			</defs>
			<clipPath id="SVGID_17_">
				<use xlink:href="#SVGID_16_"  style="overflow:visible;"/>
			</clipPath>
			
				<radialGradient id="SVGID_18_" cx="-47.0201" cy="371.8195" r="1" gradientTransform="matrix(68.3262 0 0 63.7435 3554.0032 -23675.4648)" gradientUnits="userSpaceOnUse">
				<stop  offset="0" style="stop-color:#FCEE23"/>
				<stop  offset="0.4946" style="stop-color:#FBB041"/>
				<stop  offset="0.5297" style="stop-color:#F9AA3E"/>
				<stop  offset="0.8478" style="stop-color:#EB7F29"/>
				<stop  offset="1" style="stop-color:#E76E24"/>
			</radialGradient>
			<rect x="267" y="0.5" class="st8" width="164.6" height="36.3"/>
		</g>
	</g>
</g>
<g>
	<defs>
		<rect id="SVGID_19_" y="-3.9" width="200.8" height="43"/>
	</defs>
	<clipPath id="SVGID_20_">
		<use xlink:href="#SVGID_19_"  style="overflow:visible;"/>
	</clipPath>
	<path class="st9" d="M438.2,33.6v1.2h2.4v1.2h-6.4v-2.5c0-1.3,0.9-2.1,2-2.1C437.3,31.5,438.2,32.3,438.2,33.6 M435.3,33.7v1.2h1.7
		v-1.2c0-0.6-0.3-0.9-0.9-0.9C435.7,32.8,435.3,33.1,435.3,33.7"/>
	<path class="st9" d="M440.6,27.3l-2.5,1.2v0.9h2.5v1.2h-6.4v-2.5c0-1.3,0.9-2.1,2-2.1c0.9,0,1.5,0.5,1.7,1.2l2.7-1.4V27.3z
		 M435.3,28.3v1.2h1.7v-1.2c0-0.5-0.3-0.9-0.8-0.9C435.7,27.4,435.3,27.7,435.3,28.3"/>
	<path class="st9" d="M439.9,21.4c0.4,0.4,0.7,1,0.7,1.7c0,0.7-0.2,1.3-0.7,1.7c-0.6,0.6-1.4,0.6-2.5,0.6c-1.1,0-1.9,0-2.5-0.6
		c-0.4-0.4-0.7-1-0.7-1.7c0-0.7,0.2-1.3,0.7-1.7c0.6-0.6,1.4-0.6,2.5-0.6C438.5,20.7,439.3,20.7,439.9,21.4 M435.6,22.3
		c-0.2,0.2-0.3,0.5-0.3,0.8c0,0.3,0.1,0.6,0.3,0.8c0.3,0.2,0.6,0.3,1.8,0.3c1.2,0,1.5-0.1,1.8-0.3c0.2-0.2,0.3-0.5,0.3-0.8
		c0-0.3-0.1-0.6-0.3-0.8c-0.3-0.2-0.6-0.3-1.8-0.3C436.2,22,435.9,22,435.6,22.3"/>
	<path class="st9" d="M440.6,18.9c0,0.7-0.2,1.2-0.7,1.6l-0.8-0.8c0.2-0.2,0.4-0.4,0.4-0.8c0-0.6-0.4-1-1.1-1h-4.2v-1.2h4.3
		C439.9,16.6,440.6,17.7,440.6,18.9"/>
	<polygon class="st9" points="440.6,15.4 434.2,15.4 434.2,11.2 435.3,11.2 435.3,14.2 436.8,14.2 436.8,11.7 437.9,11.7 
		437.9,14.2 439.5,14.2 439.5,11.2 440.6,11.2 	"/>
	<path class="st9" d="M440.6,8.1c0,0.7-0.2,1.3-0.7,1.7c-0.3,0.3-0.6,0.4-1,0.5c-0.4,0.1-0.9,0.1-1.6,0.1c-0.7,0-1.2,0-1.6-0.1
		c-0.4-0.1-0.7-0.2-1-0.5c-0.5-0.5-0.7-1-0.7-1.7c0-1.2,0.7-2.1,2-2.3V7c-0.5,0.1-0.9,0.5-0.9,1.1c0,0.3,0.1,0.6,0.3,0.8
		c0.3,0.3,0.6,0.3,1.8,0.3c1.2,0,1.5-0.1,1.8-0.3c0.2-0.2,0.3-0.5,0.3-0.8c0-0.6-0.4-0.9-0.9-1.1V5.7C439.9,6,440.6,6.9,440.6,8.1"
		/>
	<polygon class="st9" points="435.3,2.6 440.6,2.6 440.6,3.9 435.3,3.9 435.3,5.5 434.2,5.5 434.2,1 435.3,1 	"/>
	<polygon class="st9" points="252.7,2.2 252.7,7.5 251.5,7.5 251.5,2.2 249.8,2.2 249.8,1.1 254.4,1.1 254.4,2.2 	"/>
	<polygon class="st9" points="258.6,7.5 258.6,4.8 256.4,4.8 256.4,7.5 255.2,7.5 255.2,1.1 256.4,1.1 256.4,3.7 258.6,3.7 
		258.6,1.1 259.8,1.1 259.8,7.5 	"/>
	<polygon class="st9" points="260.8,7.5 260.8,1.1 265,1.1 265,2.2 262,2.2 262,3.7 264.5,3.7 264.5,4.8 262,4.8 262,6.4 265,6.4 
		265,7.5 	"/>
</g>
<g>
	<defs>
		<rect id="SVGID_21_" y="-3.9" width="200.8" height="43"/>
	</defs>
	<clipPath id="SVGID_22_">
		<use xlink:href="#SVGID_21_"  style="overflow:visible;"/>
	</clipPath>
	<g class="st10">
		<defs>
			<path id="SVGID_23_" d="M289.6,104.9h2.9c4.7,0,6.9,1.3,6.9,4.7c0,3.6-2.5,4.8-7.7,4.8h-2.1V104.9z M309.5,95.9v9.5
				c-0.8-3.1-2.6-5.5-5.3-7.3c-2.9-1.9-6.3-2.2-10.9-2.2h-40.4v9.3h8V136h10.5v-30.8h7.7V136h10.5v-12.9l8.2,12.9h31.9l3-8.3
				l-23.1-7.5v14.2l-9.2-12.1c4.8-1.2,8.1-4.5,9.2-9v6.9h0l0,0v0l10.5,0l13.9,0v0l0-8.9h-13.8v-6.5h13.8l0-8.7l0.7,2l7.1,21.3l0,0
				l9.3-2.9l-6.2-20.5H309.5z M377.1,115.7c0-5.9,5-10.5,11.4-10.5c6,0,11.1,4.7,11.1,10.5c0,6.5-5,11.2-11.2,11.2
				C382.5,126.8,377.1,122,377.1,115.7 M420,104.9h2.9c4.7,0,6.9,1.3,6.9,4.7c0,3.6-2.5,4.8-7.7,4.8H420V104.9z M372.8,101
				c-2.2,2-3.8,4.3-4.9,6.8l4-11.9H361l-5.8,19.2l11.3-3.5l-21.3,14.2l7.9,10.1h5.4l8.2-24.8c-0.3,1.4-0.5,2.9-0.5,4.4
				c0,5.9,2.1,10.9,6.1,14.9c4.2,4.2,9.7,6.3,16,6.3c6,0,11.7-2.2,15.8-6.3c2.5-2.4,4.3-5.3,5.3-8.6V136h10.5v-12.9l8.2,12.9h13
				l-10.5-13.7c6.1-1.6,9.7-6.4,9.7-12.9c0-5-2-8.7-5.8-11.2c-2.9-1.9-6.3-2.2-10.9-2.2h-14.3v14c-1-3.2-3-6.2-5.7-8.8
				c-4.2-3.8-9.6-5.9-15.3-5.9C382.4,95.2,377.1,97.1,372.8,101"/>
		</defs>
		<clipPath id="SVGID_24_">
			<use xlink:href="#SVGID_23_"  style="overflow:visible;"/>
		</clipPath>
		<g class="st11">
			<defs>
				<rect id="SVGID_25_" x="252.9" y="95.2" width="188.3" height="41.5"/>
			</defs>
			<clipPath id="SVGID_26_">
				<use xlink:href="#SVGID_25_"  style="overflow:visible;"/>
			</clipPath>
			
				<radialGradient id="SVGID_27_" cx="-47.1066" cy="372.4859" r="1" gradientTransform="matrix(78.1481 0 0 72.9067 4019.2576 -27032.8145)" gradientUnits="userSpaceOnUse">
				<stop  offset="0" style="stop-color:#FCEE23"/>
				<stop  offset="0.4946" style="stop-color:#FBB041"/>
				<stop  offset="0.5297" style="stop-color:#F9AA3E"/>
				<stop  offset="0.8478" style="stop-color:#EB7F29"/>
				<stop  offset="1" style="stop-color:#E76E24"/>
			</radialGradient>
			<rect x="252.9" y="95.2" class="st12" width="188.3" height="41.5"/>
		</g>
	</g>
</g>
<g>
	<defs>
		<rect id="SVGID_28_" y="-3.9" width="200.8" height="43"/>
	</defs>
	<clipPath id="SVGID_29_">
		<use xlink:href="#SVGID_28_"  style="overflow:visible;"/>
	</clipPath>
	<path class="st13" d="M29.9-63.5c-0.7-0.4-1.8-0.6-3.1-0.6c-0.6,0-1.1,0-1.4-0.1c-0.1,0-0.2-0.1-0.2-0.1c0-0.5,0.5-1.3,1.6-2.2
		c1-0.9,1.8-1.3,2.2-1.3c0,0,0,0,0.1,0c0.1,0,0.3,0.1,0.5,0.2c0.3,0.2,0.4,0.3,0.7,0.3c0.2,0,0.5-0.1,0.6-0.3
		c0.2-0.2,0.2-0.4,0.2-0.7c0-0.5-0.4-0.9-0.9-1.2c-0.4-0.2-0.8-0.4-1.2-0.4c-1.2,0-2.4,0.8-3.9,2.2c-1.4,1.4-2.2,2.6-2.2,3.7
		c0,0.6,0.5,1,1.1,1.2c0.4,0.2,0.9,0.3,1.4,0.3l2.6,0.1c0.3,0,0.6,0.1,0.8,0.3c0.3,0.2,0.4,0.4,0.4,0.6c0,0.3-0.4,0.9-1.4,1.4
		c-0.9,0.5-1.7,0.7-2.4,0.7c-0.4-0.1-0.3,0-0.4-0.2c0-0.1,0-0.1,0-0.2c0.1-0.2,0.1-0.5,0.2-0.8l0-0.3l-0.3-0.1
		c-0.1,0-0.2-0.1-0.3-0.1c-0.4,0-0.7,0.3-1,0.7c-0.2,0.3-0.3,0.6-0.3,0.9c0,0.6,0.3,1.2,0.8,1.5c0.4,0.3,0.9,0.5,1.5,0.5h0
		c1.1,0,2.2-0.4,3.3-1.2c1.2-0.8,1.9-1.9,1.9-3C31-62.4,30.6-63.1,29.9-63.5 M42.1-61c-0.5,0-0.9,0.4-1,0.8c0,0,0,0-0.1,0
		c-0.1,0-0.1,0-0.1,0c0,0,0,0,0,0c-0.1,0-0.3-0.3-0.3-1.2c0-0.4,0.2-1.9,0.7-4.2c0-0.1,0-0.2,0-0.3c0-0.2-0.1-0.4-0.2-0.6
		c0.3-0.3,0.5-0.8,0.5-1.4c0-0.8-0.2-1.4-0.7-1.7c-0.3-0.2-0.6-0.3-0.9-0.3c-0.9,0-1.8,0.5-3,1.5c-1.4,1.2-2.8,2.8-4,4.6
		c-1.2,2-1.9,3.5-1.9,4.8c0,0.6,0.2,1.2,0.6,1.5c0.3,0.2,0.6,0.3,0.9,0.3h0c1,0,2.1-0.7,3.5-2c0.8-0.8,1.6-1.6,2.3-2.5
		c0.1,1.5,0.5,2.5,1.5,2.9c0.2,0.1,0.5,0.1,0.8,0.1c0.9,0,1.6-0.5,1.9-1.3c0.1-0.2,0.1-0.3,0.1-0.5c0-0.2,0-0.4-0.2-0.5
		C42.5-61,42.3-61,42.1-61 M39.3-67.2c0,0.1-0.1,0.2-0.1,0.3c0,0.1,0,0.3,0.1,0.4c-0.2,0.2-0.3,0.4-0.3,0.7
		c-0.1,0.5-0.3,1.1-0.8,1.8c-0.1,0.1-0.7,0.9-1.9,2.3c-1.7,2-3,3-3.4,2.9c0,0-0.1,0-0.1,0c0,0,0,0,0,0c0,0,0,0,0-0.1
		c0-0.8,0.9-2.6,2.9-5.2c1.7-2.2,3-3.5,3.8-3.9C39.5-67.7,39.5-67.5,39.3-67.2 M53.2-68.1c0-0.2-0.1-0.5-0.3-0.7
		c-0.2-0.2-0.4-0.2-0.7-0.2c-1.3,0-2.3,1.2-3.4,3.2c-0.3,0.7-1,2.2-1.9,4.6l-0.1,0.2c0,0,0-0.1,0-0.1c-1-2.6-1.5-3.9-1.6-4
		c-0.4-1-0.8-1.7-1.1-2.3c-0.3-0.5-0.5-0.9-1-0.9c-0.2,0-0.5,0.1-0.7,0.2c-0.3,0.2-0.5,0.5-0.5,0.8c0,0.1,0,0.3,0.1,0.4
		c0.3,0.6,0.6,1.1,0.9,1.7c0.6,1.1,1,2,1.3,2.6c0.5,1.5,0.9,2.6,1.1,3.2c0.2,0.5,0.3,0.9,0.5,1.2c0.2,0.3,0.4,0.5,0.8,0.6
		c0.4,0,0.6-0.3,0.8-0.6c0.2-0.3,0.4-0.8,0.7-1.3c0.7-1.6,1.3-3.2,2-4.8c0.5-1.1,1-2,1.4-2.5c0.2-0.3,0.4-0.5,0.5-0.6
		c0.1-0.1,0.2-0.1,0.2-0.1v0l0,0c0.1,0,0.1,0,0.2,0c0.1,0,0.1,0,0.2,0C52.9-67.4,53.2-67.7,53.2-68.1 M153.1-70.6L153.1-70.6
		c0.3,0,0.6-0.1,0.8-0.3c0.2-0.2,0.3-0.5,0.3-0.9c0-0.3-0.1-0.6-0.3-0.8c-0.2-0.2-0.5-0.3-0.8-0.3c-0.3,0-0.6,0.2-0.8,0.4
		c-0.2,0.2-0.3,0.5-0.3,0.8c0,0.3,0.1,0.5,0.3,0.7C152.5-70.8,152.8-70.6,153.1-70.6 M54.7-70.6L54.7-70.6c0.3,0,0.6-0.1,0.8-0.3
		c0.2-0.2,0.3-0.5,0.3-0.9c0-0.3-0.1-0.6-0.3-0.8c-0.2-0.2-0.5-0.3-0.8-0.3c-0.3,0-0.6,0.2-0.8,0.4c-0.2,0.2-0.3,0.5-0.3,0.8
		c0,0.3,0.1,0.5,0.3,0.7C54.1-70.8,54.4-70.6,54.7-70.6 M180.5-63.5c-0.7-0.4-1.8-0.6-3.1-0.6c-0.6,0-1.1,0-1.4-0.1
		c-0.1,0-0.2-0.1-0.2-0.1c0-0.5,0.5-1.3,1.6-2.2c1-0.9,1.8-1.3,2.2-1.3c0,0,0,0,0.1,0c0.1,0,0.3,0.1,0.5,0.2
		c0.3,0.2,0.4,0.3,0.7,0.3c0.2,0,0.5-0.1,0.7-0.3c0.2-0.2,0.2-0.4,0.2-0.7c0-0.5-0.4-0.9-0.9-1.2c-0.4-0.2-0.8-0.4-1.2-0.4
		c-1.2,0-2.4,0.8-3.9,2.2c-1.4,1.4-2.2,2.6-2.2,3.7h-0.8l-0.1,0.2c-0.4,1-1.2,2-2.3,3c-1.2,1-2.2,1.5-2.9,1.5c-0.9-0.1-1-0.2-1-0.7
		c0-0.5,0.1-1.1,0.3-1.8c0.1-0.4,0.2-0.7,0.3-0.9c0.3,0.2,0.7,0.2,1.2,0.2c1.3,0,2.5-0.8,3.4-2.3c0.8-1.2,1.2-2.3,1.2-3.3
		c0-0.4-0.1-0.7-0.3-1.1c-0.3-0.5-0.7-0.8-1.3-0.8c-1.5,0-2.9,1.2-4.4,3.4c-1.4,2-2.2,3.8-2.3,5.3c0,0.1,0,0.2,0,0.3
		c0,0.9,0.2,1.6,0.7,2.2c0.5,0.7,1.3,1,2.3,1h0c1.3,0,2.6-0.5,3.8-1.5c1.3-1,2.2-2.4,2.8-4c0,0,0,0,0-0.1c0.2,0.1,0.4,0.3,0.6,0.4
		c0.4,0.2,0.9,0.3,1.4,0.3l2.6,0.1c0.3,0,0.6,0.1,0.8,0.3c0.3,0.2,0.4,0.4,0.4,0.6c0,0.3-0.4,0.9-1.4,1.4c-0.9,0.5-1.7,0.7-2.4,0.7
		c-0.4-0.1-0.3,0-0.4-0.2c0-0.1,0-0.1,0-0.2c0.1-0.2,0.1-0.5,0.2-0.8l0-0.3l-0.3-0.1c-0.1,0-0.2-0.1-0.3-0.1c-0.4,0-0.7,0.3-1,0.7
		c-0.2,0.3-0.3,0.6-0.3,0.9c0,0.6,0.3,1.2,0.8,1.5c0.4,0.3,0.9,0.5,1.5,0.5h0c1.1,0,2.2-0.4,3.3-1.2c1.2-0.8,1.9-1.9,1.9-3
		C181.7-62.4,181.3-63.1,180.5-63.5 M171.2-68.1L171.2-68.1l-0.1-0.2L171.2-68.1z M170.5-67.5c0.2-0.3,0.4-0.4,0.7-0.5c0,0,0,0,0,0
		c0,0.7-0.4,1.5-1.1,2.5c-0.8,1-1.5,1.4-2,1.4c0,0,0,0-0.1,0c-0.1,0-0.1,0-0.2,0C168.1-64.6,169-65.8,170.5-67.5 M76.7-66.4
		c0.2-0.1,0.5-0.2,0.6-0.5c0.2-0.3,0.2-0.6,0.2-1c0-0.5-0.1-1-0.4-1.5c-0.3-0.6-0.9-1-1.5-1c-1.5,0-3.1,1.3-5.1,3.8
		c-2,2.5-3,4.5-3,6.2c0,0.2,0,0.4,0.1,0.6L67.2-60L67-60l-0.2,0.2c-0.1,0.1-0.3,0.2-0.3,0.3c0,0-0.1,0-0.1,0.1l0,0c0,0,0,0,0,0
		c0,0,0,0,0,0c-0.1-0.1-0.4-0.6-0.5-1.6c0-0.2-0.1-1-0.3-2.4c-0.1-0.9-0.2-1.7-0.2-2.6l0,0l0,0c-0.2-1.2-0.9-2-1.9-2
		c-0.7,0-1.2,0.5-1.9,1.4c-0.5,0.6-1,1.4-1.7,2.3l0.4-2l0-0.1c-0.1-0.2-0.1-0.4-0.2-0.6l0,0l0,0c-0.2-0.3-0.5-0.5-0.9-0.5
		c-0.7,0-1.2,0.7-1.2,1.5c-0.1,0.8-0.1,1.5-0.1,1.9c-0.5,3-0.7,4.8-0.8,5.5c-0.1-0.1-0.2-0.2-0.3-0.3l-0.2-0.2l-0.2,0.1
		c-0.2,0.1-0.4,0.3-0.6,0.4c-0.2,0-0.5-0.2-0.7-0.9c-0.1-0.5-0.2-1.1-0.3-1.6c0-0.1,0-0.2,0-0.4c0-0.2,0-0.5,0-0.9
		c0.1-1.5,0.3-2.6,0.5-3.2c0.3-0.6,0.4-1,0.4-1.4c0-0.3-0.1-0.6-0.2-0.8c-0.2-0.2-0.5-0.3-0.7-0.3c-0.5,0-0.8,0.4-1,0.9
		c-0.2,0.5-0.4,1.1-0.6,2c-0.2,1.2-0.3,2.2-0.3,3.1c0,0.9,0.2,1.9,0.5,2.8c0.5,1.4,1.2,2.3,2.3,2.3c0.3,0,0.6-0.1,0.9-0.3
		c0.2-0.1,0.5-0.3,0.6-0.6c0,0.1,0.1,0.2,0.2,0.2c0.2,0.2,0.4,0.2,0.7,0.2h0c0.5,0,0.9-0.4,1-0.9c0.5-1.6,1.3-3.3,2.5-5.2
		c0.6-1,1.1-1.7,1.5-2.1c0.2-0.2,0.3-0.3,0.4-0.4c0,0.2,0.1,0.4,0.1,0.7c0.1,1.2,0.2,2.2,0.3,2.9c0.2,1.5,0.4,2.7,0.9,3.5
		c0.4,0.8,1.1,1.3,1.9,1.3c0.3,0,0.6-0.1,0.9-0.3c0.3-0.2,0.5-0.4,0.6-0.7c0,0,0,0,0,0c0.3,0.5,0.9,0.7,1.5,0.7
		c1.2,0,2.3-0.8,3.5-2.2c0.5-0.5,1.2-1.7,2.4-3.4c0.2-0.2,0.3-0.4,0.4-0.6c0.1,0.2,0.2,0.6,0.3,1.1c0.1,0.8,0.2,1.9,0.2,3.4
		c0,1.6-0.3,3.3-0.8,5c-0.9,2.6-2.1,3.7-3.7,3.7c-0.7,0-1.4-0.3-2.1-1.1c-0.6-0.7-0.9-1.5-0.9-2.4c0,0,0-0.1,0-0.1
		c0-0.2,0-0.4-0.2-0.6c-0.1-0.2-0.4-0.3-0.6-0.3c-0.3,0-0.6,0.1-0.7,0.4C67.1-55,67-54.8,67-54.5c0,1.3,0.5,2.5,1.5,3.6
		c1,1.1,2.1,1.7,3.4,1.7h0c1.8,0,3.3-1.1,4.4-3.2c1.2-2.1,1.8-4.6,1.8-7.6c0-1.2-0.1-2.4-0.3-3.6C77.6-65,77.3-66,76.7-66.4
		 M75.2-66.1c-0.3,0.3-0.7,0.7-1.1,1.3c-1.3,1.7-2.2,2.8-2.6,3.2c-0.9,1-1.7,1.5-2.1,1.6c0-0.1,0-0.1,0-0.2c0-0.5,0.2-1.2,0.7-2.1
		c0.4-0.8,0.8-1.4,1.1-1.8l0,0l0,0c0.5-0.8,1.1-1.7,2-2.6c1.1-1.2,1.9-1.8,2.4-1.8c0,0.1,0,0.1,0,0.3c0,0.1,0,0.1,0,0.2
		c0,0.1,0,0.2,0,0.3c0,0.4,0.1,0.7,0.2,1c0,0.1,0.1,0.2,0.2,0.2C75.6-66.5,75.4-66.4,75.2-66.1 M135.6-66.4c0.2-0.1,0.5-0.2,0.6-0.5
		c0.2-0.3,0.2-0.6,0.2-1c0-0.5-0.1-1-0.4-1.5c-0.3-0.6-0.9-1-1.5-1c-1.5,0-3.1,1.3-5.1,3.8c-2,2.5-3,4.5-3,6.2c0,0.2,0,0.4,0.1,0.6
		l-0.3-0.1l-0.2-0.1l-0.2,0.2c-0.1,0.1-0.3,0.2-0.3,0.3c0,0-0.1,0-0.1,0.1l0,0c0,0,0,0,0,0c0,0,0,0,0,0c-0.1-0.1-0.4-0.6-0.5-1.6
		c0-0.2-0.1-1-0.3-2.4c-0.1-0.9-0.2-1.7-0.2-2.6l0,0l0,0c-0.2-1.2-0.9-2-1.9-2c-0.7,0-1.2,0.5-1.9,1.4c-0.5,0.6-1,1.4-1.7,2.3l0.4-2
		l0-0.1c-0.1-0.2-0.1-0.4-0.2-0.6l0,0l0,0c-0.2-0.3-0.5-0.5-0.9-0.5c-0.7,0-1.1,0.7-1.2,1.5c-0.1,0.8-0.1,1.5-0.1,1.9
		c-0.2,1.4-0.4,2.6-0.5,3.5c-0.2,0.1-0.4,0.3-0.5,0.4c-0.2,0.2-0.4,0.3-0.4,0.3c-0.2,0-0.4-0.1-0.6-0.8c-0.2-0.6-0.3-1.7-0.3-3.1
		c0-0.7,0.1-1.5,0.2-2.3c0.2-0.8,0.2-1.2,0.2-1.4c0-0.3-0.1-0.6-0.3-0.8c-0.2-0.2-0.5-0.3-0.8-0.3c-0.4,0-0.7,0.2-0.9,0.5
		c-0.2,0.3-0.3,0.6-0.3,1c0,0.7-0.4,1.9-1.2,3.5c-0.7,1.4-1.4,2.6-2.2,3.5c-0.5,0.7-1,1-1.2,1.1c0,0,0-0.1,0-0.1c0-0.1,0-0.4,0-0.6
		c0-1.1,0.6-3.3,1.7-6.4l0.2-0.6c0.1-0.2,0.1-0.3,0.1-0.4l0,0v0c0-0.3-0.2-0.6-0.5-0.7c-0.2-0.2-0.5-0.2-0.8-0.2
		c-0.6,0.1-0.7,0.5-1,1.2c-0.3,0.6-0.5,1.6-0.8,2.8c-0.5,2.2-0.8,3.5-0.8,4.1c0,0.9,0.1,1.6,0.4,2.1c0.2,0.5,0.7,0.8,1.3,0.8
		c0,0,0,0,0,0c1.3,0,2.4-0.9,3.4-2.4c0.2-0.4,0.7-1.2,1.3-2.6c0.1,1.1,0.4,1.9,0.7,2.5c0.4,0.9,1.2,1.4,2,1.4c0.2,0,0.5-0.1,0.7-0.2
		c0,0.1,0,0.2,0,0.2c0,0,0,0.1,0,0.1c0,0.2,0.1,0.5,0.3,0.7c0.2,0.2,0.4,0.2,0.7,0.2h0c0.5,0,0.9-0.4,1-0.9c0.5-1.6,1.3-3.3,2.5-5.2
		c0.6-1,1.1-1.7,1.5-2.1c0.2-0.2,0.3-0.3,0.4-0.4c0,0.2,0.1,0.4,0.1,0.7c0.1,1.2,0.2,2.2,0.3,2.9c0.2,1.5,0.4,2.7,0.9,3.5
		c0.4,0.8,1.1,1.3,1.9,1.3c0.3,0,0.6-0.1,0.9-0.3c0.3-0.2,0.5-0.4,0.6-0.7c0,0,0,0,0,0c0.3,0.5,0.9,0.7,1.5,0.7
		c1.2,0,2.3-0.8,3.5-2.2c0.5-0.5,1.3-1.7,2.4-3.4c0.2-0.2,0.3-0.4,0.4-0.6c0.1,0.2,0.2,0.6,0.3,1.1c0.1,0.8,0.2,1.9,0.2,3.4
		c0,1.6-0.3,3.3-0.8,5c-0.9,2.6-2.1,3.7-3.7,3.7c-0.8,0-1.4-0.3-2.1-1.1c-0.6-0.7-0.9-1.5-0.9-2.4c0,0,0-0.1,0-0.1
		c0-0.2,0-0.4-0.2-0.6c-0.1-0.2-0.4-0.3-0.6-0.3c-0.3,0-0.6,0.1-0.7,0.4c-0.2,0.2-0.2,0.5-0.2,0.8c0,1.3,0.5,2.5,1.5,3.6
		c1,1.1,2.1,1.7,3.4,1.7h0c1.8,0,3.3-1.1,4.4-3.2c1.2-2.1,1.8-4.6,1.8-7.6c0-1.2-0.1-2.4-0.3-3.6C136.5-65,136.2-66,135.6-66.4
		 M134.1-66.1c-0.3,0.3-0.7,0.7-1.1,1.3c-1.3,1.7-2.2,2.8-2.6,3.2c-0.9,1-1.7,1.5-2.1,1.6c0-0.1,0-0.1,0-0.2c0-0.5,0.2-1.2,0.7-2.1
		c0.4-0.8,0.8-1.4,1.1-1.8l0,0l0,0c0.5-0.8,1.1-1.7,2-2.6c1.1-1.2,1.9-1.8,2.4-1.8c0,0.1,0,0.1,0,0.3c0,0.1,0,0.1,0,0.2
		c0,0.1,0,0.2,0,0.3c0,0.4,0.1,0.7,0.2,1c0,0.1,0.1,0.2,0.2,0.2C134.5-66.5,134.3-66.4,134.1-66.1 M150.7-58.2L150.7-58.2l-0.3-0.4
		l-0.1-0.1h-0.7l-0.1,0.2c-0.1,0.1-0.1,0.1-0.2,0.1c-0.4,0-0.7-0.2-1-1c-0.3-0.8-0.4-2-0.4-3.6c0-2.7,0.1-5.2,0.4-7.3
		c0.1-0.5,0.2-1.2,0.4-2.2l0.2-1c0-0.2,0.1-0.4,0.1-0.5l0,0v0c0-0.3-0.1-0.6-0.3-0.8c-0.2-0.2-0.5-0.3-0.8-0.3
		c-0.3,0-0.5,0.3-0.6,0.4c-0.3,0.6-0.6,1.9-0.8,3.9c-0.3,2.4-0.4,4.9-0.4,7.3c0,0.5,0,0.9,0,1.3l0.4,0l-0.4,0
		c0.1,1.7,0.4,3.1,1.1,4.1c0.5,0.9,1.3,1.4,2.1,1.4h0c0.6,0,1.1-0.3,1.5-0.7l0.1-0.1v-0.1C150.7-57.9,150.7-58,150.7-58.2
		L150.7-58.2z M155.1-59.1l-0.2-0.2l-0.2,0.1c-0.2,0.1-0.4,0.3-0.6,0.4c-0.2,0-0.5-0.2-0.7-0.9c-0.1-0.5-0.2-1.1-0.3-1.6
		c0-0.1,0-0.2,0-0.4c0-0.2,0-0.5,0-0.9c0.1-1.5,0.3-2.6,0.5-3.2c0.3-0.6,0.4-1,0.4-1.4c0-0.3-0.1-0.6-0.2-0.8
		c-0.2-0.2-0.5-0.3-0.7-0.3c-0.5,0-0.8,0.4-1,0.9c-0.2,0.5-0.4,1.1-0.6,2c-0.2,1.2-0.3,2.2-0.3,3.1c0,0.9,0.2,1.9,0.5,2.8
		c0.5,1.4,1.2,2.3,2.3,2.3c0.3,0,0.6-0.1,0.9-0.3c0.4-0.2,0.7-0.5,0.7-1C155.5-58.7,155.3-58.9,155.1-59.1 M96-64.8
		c-0.2-0.3-0.5-1.6-0.7-3.6l0-0.2c-0.1-0.9-0.5-1.7-1.3-1.7c-0.3,0-0.6,0.1-0.8,0.3c-0.2,0.2-0.3,0.5-0.3,0.8c0,0.1,0,0.2,0,0.3
		c0,0.1,0,0.3,0,0.4c0,0.2,0,0.5-0.1,0.8c-0.2,1.2-0.9,2.9-2.2,4.9c-0.3,0.6-0.6,1.1-0.9,1.5c-0.3,0.5-0.6,0.8-0.8,1
		c-0.1,0.1-0.1,0.1-0.2,0.2c0,0,0,0,0-0.1c0-0.1,0-0.4,0-0.6c0-1.4,0.3-3,0.9-4.7c0.5-1.2,0.9-2.3,1.5-3.1c0.1-0.1,0.1-0.2,0.1-0.3
		c0-0.3-0.2-0.6-0.4-0.7c-0.2-0.2-0.5-0.3-0.7-0.3c0,0-0.1,0-0.1,0c-0.5,0.1-0.8,0.5-1.1,1.1c-0.3,0.6-0.6,1.5-1,2.7
		c-0.7,2.3-1,4-1,5.3c0,0.7,0.1,1.3,0.4,1.7c0.3,0.4,0.8,0.7,1.3,0.7c0.2,0,0.4,0,0.6-0.1c1.2-0.4,2.2-1.6,3.3-3.6
		c0.4-0.8,0.9-1.9,1.5-3.2c0.3,1.7,0.4,3.2,0.4,4.4c0,2.2-0.4,4.2-1.3,6c-1,2.1-2.3,3-3.9,3c-0.1,0-0.2,0-0.3,0
		c-0.7-0.1-1.3-0.3-1.8-0.8c-0.5-0.5-0.9-1-1.2-1.7c0-0.2-0.1-0.4-0.2-0.6c-0.1-0.3-0.4-0.7-0.8-0.7c-0.2,0-0.5,0.1-0.6,0.3
		C84-55.2,84-54.9,84-54.7c0,0.9,0.5,1.9,1.5,2.9c1.1,1.2,2.4,1.8,3.8,1.8h0c2.4,0,4.3-1.6,5.6-4.5c0.9-2.1,1.4-4.2,1.4-6.3
		c0-1.1,0-2-0.1-2.6C96.2-64.1,96.1-64.5,96-64.8 M165.3-67.4L165.3-67.4L165.3-67.4c0.1,0,0.1,0,0.2,0c0.1,0,0.1,0,0.2,0
		c0.3,0,0.6-0.3,0.6-0.7c0-0.2-0.1-0.5-0.3-0.7c-0.2-0.2-0.4-0.2-0.7-0.2c-1.3,0-2.3,1.2-3.4,3.2c-0.3,0.7-1,2.2-1.9,4.6l-0.1,0.2
		c0,0,0-0.1,0-0.1c-1-2.6-1.5-3.9-1.6-4c-0.4-1-0.8-1.7-1.1-2.3c-0.3-0.5-0.5-0.9-1-0.9c-0.2,0-0.5,0.1-0.7,0.2
		c-0.3,0.2-0.5,0.5-0.5,0.8c0,0.1,0,0.3,0.1,0.4c0.3,0.6,0.6,1.2,0.9,1.7c0.6,1.1,1,2,1.3,2.6c0.5,1.5,0.9,2.6,1.1,3.2
		c0.2,0.5,0.3,0.9,0.5,1.2c0.2,0.3,0.4,0.5,0.8,0.6c0.4,0,0.6-0.3,0.8-0.6c0.2-0.3,0.4-0.8,0.7-1.3c0.7-1.6,1.3-3.2,2-4.8
		c0.5-1.1,1-2,1.4-2.5c0.2-0.3,0.4-0.5,0.5-0.6C165.2-67.4,165.3-67.4,165.3-67.4 M103-69.3c-0.4,0-0.8,0.2-1.4,0.4
		c-0.5,0.2-0.9,0.5-1.1,0.8c-0.1,0-0.1,0-0.2,0c-1,0.1-1.5,1-2.2,2.7c-0.7,1.7-1,3.2-1,4.7c0,0.9,0.2,1.7,0.7,2.3c0.5,0.6,1.2,1,2,1
		h0c0.1,0,0.2,0,0.3,0l0-0.4l0,0.4c1.6-0.1,2.9-1.4,4.1-3.5c1-1.8,1.5-3.2,1.5-4.4v-0.1C105.6-67.8,104.7-69.3,103-69.3 M102.4-61.9
		c-1,1.9-2,2.8-2.8,2.7c-0.2,0-0.3-0.1-0.5-0.3c-0.1-0.3-0.2-0.7-0.2-1.4c0-1.5,0.7-3.2,2.1-5.1c0.3-0.4,0.4-0.6,0.5-0.9
		c0.6-0.5,1.1-0.8,1.5-0.8c0.2,0,0.3,0.1,0.5,0.3c0.1,0.3,0.2,0.8,0.2,1.5C103.7-64.9,103.3-63.5,102.4-61.9"/>
	<path class="st13" d="M49.2-105.2h2.5c4.1,0,6,1.2,6,4.1c0,3.2-2.2,4.2-6.8,4.2h-1.8V-105.2z M66.6-113.1v8.3
		c-0.7-2.7-2.3-4.8-4.6-6.4c-2.5-1.7-5.5-1.9-9.5-1.9H17.2v8.1h7v26.9h9.2V-105H40v26.9h9.2v-11.3l7.2,11.3h27.9l2.6-7.3l-20.2-6.6
		v12.4l-8.1-10.6c4.2-1.1,7.1-4,8.1-7.9v6.1h0l0,0v0l9.2,0l12.1,0v0l0-7.8H75.8v-5.7h12.1l0-7.6l0.6,1.7l6.2,18.6l0,0l8.1-2.5
		l-5.4-17.9H66.6z M125.7-95.8c0-5.1,4.4-9.2,10-9.2c5.3,0,9.7,4.1,9.7,9.2c0,5.7-4.4,9.8-9.8,9.8C130.4-86.1,125.7-90.3,125.7-95.8
		 M163.2-105.2h2.5c4.1,0,6,1.2,6,4.1c0,3.2-2.2,4.2-6.8,4.2h-1.8V-105.2z M122-108.6c-1.9,1.7-3.3,3.8-4.3,5.9l3.5-10.4h-9.5
		l-5.1,16.8l9.9-3.1L97.8-86.9l6.9,8.9h4.7l7.2-21.7c-0.3,1.2-0.4,2.5-0.4,3.8c0,5.2,1.8,9.5,5.3,13c3.7,3.6,8.4,5.5,14,5.5
		c5.2,0,10.2-1.9,13.8-5.5c2.2-2.1,3.8-4.7,4.6-7.5v12.3h9.2v-11.3l7.2,11.3h11.4l-9.2-12c5.3-1.4,8.5-5.6,8.5-11.3
		c0-4.3-1.7-7.6-5.1-9.8c-2.5-1.7-5.5-1.9-9.5-1.9h-12.5v12.2c-0.9-2.8-2.6-5.5-5-7.7c-3.6-3.4-8.4-5.2-13.4-5.2
		C130.3-113.8,125.7-112,122-108.6"/>
</g>
<g>
	<defs>
		<rect id="SVGID_30_" y="-3.9" width="200.8" height="43"/>
	</defs>
	<clipPath id="SVGID_31_">
		<use xlink:href="#SVGID_30_"  style="overflow:visible;"/>
	</clipPath>
	<g class="st14">
		<defs>
			<path id="SVGID_32_" d="M49.2-105.2h2.5c4.1,0,6,1.2,6,4.1c0,3.2-2.2,4.2-6.8,4.2h-1.8V-105.2z M66.6-113.1v8.3
				c-0.7-2.7-2.3-4.8-4.6-6.4c-2.5-1.7-5.5-1.9-9.5-1.9H17.2v8.1h7v26.9h9.2V-105H40v26.9h9.2v-11.3l7.2,11.3h27.9l2.6-7.3
				l-20.2-6.6v12.4l-8.1-10.6c4.2-1.1,7.1-4,8.1-7.9v6.1h0l0,0v0l9.2,0l12.1,0v0l0-7.8H75.8v-5.7h12.1l0-7.6l0.6,1.7l6.2,18.6l0,0
				l8.1-2.5l-5.4-17.9H66.6z M125.7-95.8c0-5.1,4.4-9.2,10-9.2c5.3,0,9.7,4.1,9.7,9.2c0,5.7-4.4,9.8-9.8,9.8
				C130.4-86.1,125.7-90.3,125.7-95.8 M163.2-105.2h2.5c4.1,0,6,1.2,6,4.1c0,3.2-2.2,4.2-6.8,4.2h-1.8V-105.2z M122-108.6
				c-1.9,1.7-3.3,3.8-4.3,5.9l3.5-10.4h-9.5l-5.1,16.8l9.9-3.1L97.8-86.9l6.9,8.9h4.7l7.2-21.7c-0.3,1.2-0.4,2.5-0.4,3.8
				c0,5.2,1.8,9.5,5.3,13c3.7,3.6,8.5,5.5,14,5.5c5.2,0,10.2-1.9,13.8-5.5c2.2-2.1,3.8-4.7,4.6-7.5v12.3h9.2v-11.3l7.2,11.3h11.4
				l-9.2-12c5.3-1.4,8.5-5.6,8.5-11.3c0-4.3-1.7-7.6-5.1-9.8c-2.5-1.7-5.5-1.9-9.5-1.9h-12.5v12.2c-0.9-2.8-2.6-5.5-5-7.7
				c-3.6-3.3-8.4-5.2-13.4-5.2C130.3-113.8,125.7-112,122-108.6"/>
		</defs>
		<clipPath id="SVGID_33_">
			<use xlink:href="#SVGID_32_"  style="overflow:visible;"/>
		</clipPath>
		<rect x="17.2" y="-113.8" class="st15" width="164.6" height="36.3"/>
	</g>
</g>
<g>
	<defs>
		<rect id="SVGID_34_" y="-3.9" width="200.8" height="43"/>
	</defs>
	<clipPath id="SVGID_35_">
		<use xlink:href="#SVGID_34_"  style="overflow:visible;"/>
	</clipPath>
	<path class="st16" d="M188.4-80.6v1.2h2.4v1.2h-6.4v-2.5c0-1.3,0.9-2.1,2-2.1C187.5-82.7,188.4-81.9,188.4-80.6 M185.5-80.6v1.2
		h1.7v-1.2c0-0.6-0.3-0.9-0.9-0.9C185.9-81.5,185.5-81.1,185.5-80.6"/>
	<path class="st16" d="M190.8-87l-2.5,1.2v0.9h2.5v1.2h-6.4v-2.5c0-1.3,0.9-2.1,2-2.1c0.9,0,1.5,0.5,1.7,1.2l2.7-1.4V-87z M185.5-86
		v1.2h1.7V-86c0-0.5-0.3-0.9-0.8-0.9C185.9-86.9,185.5-86.5,185.5-86"/>
	<path class="st16" d="M190.1-92.9c0.5,0.4,0.7,1,0.7,1.7c0,0.7-0.2,1.3-0.7,1.7c-0.6,0.6-1.4,0.6-2.5,0.6c-1.1,0-1.9,0-2.5-0.6
		c-0.4-0.4-0.7-1-0.7-1.7c0-0.7,0.2-1.3,0.7-1.7c0.6-0.6,1.4-0.6,2.5-0.6C188.7-93.5,189.5-93.5,190.1-92.9 M185.8-92
		c-0.2,0.2-0.3,0.5-0.3,0.8c0,0.3,0.1,0.6,0.3,0.8c0.3,0.2,0.6,0.3,1.8,0.3c1.2,0,1.5-0.1,1.8-0.3c0.2-0.2,0.3-0.5,0.3-0.8
		c0-0.3-0.1-0.6-0.3-0.8c-0.3-0.2-0.6-0.3-1.8-0.3C186.4-92.3,186.1-92.2,185.8-92"/>
	<path class="st16" d="M190.8-95.4c0,0.7-0.2,1.2-0.7,1.6l-0.8-0.8c0.2-0.2,0.4-0.4,0.4-0.8c0-0.6-0.4-1-1.1-1h-4.2v-1.2h4.3
		C190.1-97.6,190.8-96.6,190.8-95.4"/>
	<polygon class="st16" points="190.8,-98.8 184.4,-98.8 184.4,-103 185.5,-103 185.5,-100.1 187,-100.1 187,-102.6 188.1,-102.6 
		188.1,-100.1 189.7,-100.1 189.7,-103 190.8,-103 	"/>
	<path class="st16" d="M190.8-106.2c0,0.7-0.2,1.3-0.7,1.7c-0.3,0.3-0.6,0.4-1,0.5c-0.4,0.1-0.9,0.1-1.6,0.1c-0.7,0-1.2,0-1.6-0.1
		c-0.4-0.1-0.7-0.2-1-0.5c-0.5-0.5-0.7-1-0.7-1.7c0-1.2,0.7-2.1,2-2.3v1.3c-0.5,0.1-0.9,0.5-0.9,1.1c0,0.3,0.1,0.6,0.3,0.8
		c0.3,0.3,0.6,0.3,1.8,0.3c1.2,0,1.5-0.1,1.8-0.3c0.2-0.2,0.3-0.5,0.3-0.8c0-0.6-0.4-0.9-0.9-1.1v-1.3
		C190.1-108.3,190.8-107.4,190.8-106.2"/>
	<polygon class="st16" points="185.5,-111.6 190.8,-111.6 190.8,-110.4 185.5,-110.4 185.5,-108.7 184.4,-108.7 184.4,-113.3 
		185.5,-113.3 	"/>
	<polygon class="st16" points="2.9,-112 2.9,-106.8 1.7,-106.8 1.7,-112 0,-112 0,-113.1 4.6,-113.1 4.6,-112 	"/>
	<polygon class="st16" points="8.8,-106.8 8.8,-109.4 6.6,-109.4 6.6,-106.8 5.4,-106.8 5.4,-113.1 6.6,-113.1 6.6,-110.5 
		8.8,-110.5 8.8,-113.1 10,-113.1 10,-106.8 	"/>
	<polygon class="st16" points="11,-106.8 11,-113.1 15.2,-113.1 15.2,-112 12.2,-112 12.2,-110.5 14.7,-110.5 14.7,-109.4 
		12.2,-109.4 12.2,-107.9 15.2,-107.9 15.2,-106.8 	"/>
	<path class="st16" d="M49.6,8.5h2.5c4.1,0,6,1.2,6,4.1c0,3.2-2.2,4.2-6.8,4.2h-1.8V8.5z M67,0.6V9c-0.7-2.7-2.3-4.8-4.6-6.4
		c-2.5-1.7-5.5-1.9-9.5-1.9H17.6v8.1h7v26.9h9.2V8.8h6.7v26.9h9.2V24.4l7.2,11.3h27.9l2.6-7.3L67,21.8v12.4L59,23.7
		c4.2-1.1,7.1-4,8.1-7.9v6.1h0l0,0v0l9.2,0l12.1,0v0l0-7.8H76.2V8.4h12.1l0-7.6l0.6,1.7l6.2,18.6l0,0l8.1-2.5L97.9,0.6H67z
		 M126.1,17.9c0-5.1,4.4-9.2,10-9.2c5.3,0,9.7,4.1,9.7,9.2c0,5.7-4.4,9.8-9.8,9.8C130.8,27.7,126.1,23.4,126.1,17.9 M163.6,8.5h2.5
		c4.1,0,6,1.2,6,4.1c0,3.2-2.2,4.2-6.8,4.2h-1.8V8.5z M122.4,5.1c-1.9,1.7-3.3,3.7-4.3,5.9l3.5-10.4H112L107,17.5l9.9-3.1L98.2,26.8
		l6.9,8.9h4.7l7.2-21.7c-0.3,1.2-0.4,2.5-0.4,3.8c0,5.2,1.8,9.5,5.3,13c3.7,3.6,8.4,5.5,14,5.5c5.2,0,10.2-1.9,13.8-5.5
		c2.2-2.1,3.8-4.7,4.6-7.5v12.3h9.2V24.4l7.2,11.3h11.4l-9.2-12c5.3-1.4,8.5-5.6,8.5-11.3c0-4.3-1.7-7.6-5.1-9.8
		c-2.5-1.7-5.5-1.9-9.5-1.9h-12.5v12.2c-0.9-2.8-2.6-5.5-5-7.7c-3.6-3.4-8.4-5.2-13.4-5.2C130.7,0,126.1,1.7,122.4,5.1"/>
</g>
<g>
	<defs>
		<path id="SVGID_36_" d="M49.6,8.5h2.5c4.1,0,6,1.2,6,4.1c0,3.2-2.2,4.2-6.8,4.2h-1.8V8.5z M67,0.6V9c-0.7-2.7-2.3-4.8-4.6-6.4
			c-2.5-1.7-5.5-1.9-9.5-1.9H17.6v8.1h7v26.9h9.2V8.8h6.7v26.9h9.2V24.4l7.2,11.3h27.9l2.6-7.3L67,21.8v12.4L59,23.7
			c4.2-1.1,7.1-4,8.1-7.9v6.1h0l0,0v0l9.2,0l12.1,0v0l0-7.8H76.2V8.4h12.1l0-7.6l0.6,1.7l6.2,18.6l0,0l8.1-2.5L97.9,0.6H67z
			 M126.1,17.9c0-5.1,4.4-9.2,10-9.2c5.3,0,9.7,4.1,9.7,9.2c0,5.7-4.4,9.8-9.8,9.8C130.8,27.7,126.1,23.4,126.1,17.9 M163.6,8.5h2.5
			c4.1,0,6,1.2,6,4.1c0,3.2-2.2,4.2-6.8,4.2h-1.8V8.5z M122.4,5.1c-1.9,1.7-3.3,3.8-4.3,5.9l3.5-10.4H112l-5.1,16.8l9.9-3.1
			L98.2,26.8l6.9,8.9h4.7l7.2-21.7c-0.3,1.2-0.4,2.5-0.4,3.8c0,5.2,1.8,9.5,5.3,13c3.7,3.6,8.5,5.5,14,5.5c5.2,0,10.2-1.9,13.8-5.5
			c2.2-2.1,3.8-4.7,4.6-7.5v12.3h9.2V24.4l7.2,11.3h11.4l-9.2-12c5.3-1.4,8.5-5.6,8.5-11.3c0-4.3-1.7-7.6-5.1-9.8
			c-2.5-1.7-5.5-1.9-9.5-1.9h-12.5v12.2c-0.9-2.8-2.6-5.5-5-7.7c-3.6-3.4-8.4-5.2-13.4-5.2C130.7,0,126.1,1.7,122.4,5.1"/>
	</defs>
	<clipPath id="SVGID_37_">
		<use xlink:href="#SVGID_36_"  style="overflow:visible;"/>
	</clipPath>
	<rect x="17.6" y="0" class="st17" width="164.6" height="36.3"/>
</g>
<g>
	<defs>
		<rect id="SVGID_38_" y="-3.9" width="200.8" height="43"/>
	</defs>
	<clipPath id="SVGID_39_">
		<use xlink:href="#SVGID_38_"  style="overflow:visible;"/>
	</clipPath>
	<path class="st18" d="M188.8,33.1v1.2h2.4v1.2h-6.4v-2.5c0-1.3,0.9-2.1,2-2.1C187.9,31,188.8,31.8,188.8,33.1 M185.9,33.2v1.2h1.7
		v-1.2c0-0.6-0.3-0.9-0.9-0.9C186.3,32.3,185.9,32.6,185.9,33.2"/>
	<path class="st18" d="M191.2,26.8l-2.5,1.2V29h2.5v1.2h-6.4v-2.5c0-1.3,0.9-2.1,2-2.1c0.9,0,1.5,0.5,1.7,1.2l2.7-1.4V26.8z
		 M185.9,27.8V29h1.7v-1.2c0-0.5-0.3-0.9-0.8-0.9C186.3,26.9,185.9,27.2,185.9,27.8"/>
	<path class="st18" d="M190.5,20.9c0.4,0.4,0.7,1,0.7,1.7c0,0.7-0.2,1.3-0.7,1.7c-0.6,0.6-1.4,0.6-2.5,0.6c-1.1,0-1.9,0-2.5-0.6
		c-0.4-0.4-0.7-1-0.7-1.7c0-0.7,0.2-1.3,0.7-1.7c0.6-0.6,1.4-0.6,2.5-0.6C189.1,20.2,189.9,20.2,190.5,20.9 M186.2,21.8
		c-0.2,0.2-0.3,0.5-0.3,0.8c0,0.3,0.1,0.6,0.3,0.8c0.3,0.2,0.6,0.3,1.8,0.3c1.2,0,1.5-0.1,1.8-0.3c0.2-0.2,0.3-0.5,0.3-0.8
		c0-0.3-0.1-0.6-0.3-0.8c-0.3-0.2-0.6-0.3-1.8-0.3C186.8,21.5,186.5,21.6,186.2,21.8"/>
	<path class="st18" d="M191.2,18.4c0,0.7-0.2,1.2-0.7,1.6l-0.8-0.8c0.2-0.2,0.4-0.4,0.4-0.8c0-0.6-0.4-1-1.1-1h-4.2v-1.2h4.3
		C190.5,16.1,191.2,17.2,191.2,18.4"/>
	<polygon class="st18" points="191.2,14.9 184.8,14.9 184.8,10.7 185.9,10.7 185.9,13.7 187.4,13.7 187.4,11.2 188.5,11.2 
		188.5,13.7 190.1,13.7 190.1,10.7 191.2,10.7 	"/>
	<path class="st18" d="M191.2,7.6c0,0.7-0.2,1.3-0.7,1.7c-0.3,0.3-0.6,0.4-1,0.5c-0.4,0.1-0.9,0.1-1.6,0.1c-0.7,0-1.2,0-1.6-0.1
		c-0.4-0.1-0.7-0.2-1-0.5c-0.5-0.5-0.7-1-0.7-1.7c0-1.2,0.7-2.1,2-2.3v1.3c-0.5,0.1-0.9,0.5-0.9,1.1c0,0.3,0.1,0.6,0.3,0.8
		c0.3,0.3,0.6,0.3,1.8,0.3c1.2,0,1.5-0.1,1.8-0.3c0.2-0.2,0.3-0.5,0.3-0.8c0-0.6-0.4-0.9-0.9-1.1V5.3C190.5,5.5,191.2,6.4,191.2,7.6
		"/>
	<polygon class="st18" points="185.9,2.1 191.2,2.1 191.2,3.4 185.9,3.4 185.9,5 184.8,5 184.8,0.5 185.9,0.5 	"/>
	<polygon class="st18" points="3.3,1.7 3.3,7 2.1,7 2.1,1.7 0.4,1.7 0.4,0.6 5,0.6 5,1.7 	"/>
	<polygon class="st18" points="9.2,7 9.2,4.3 7,4.3 7,7 5.8,7 5.8,0.6 7,0.6 7,3.2 9.2,3.2 9.2,0.6 10.4,0.6 10.4,7 	"/>
	<polygon class="st18" points="11.4,7 11.4,0.6 15.6,0.6 15.6,1.7 12.6,1.7 12.6,3.2 15.1,3.2 15.1,4.3 12.6,4.3 12.6,5.9 15.6,5.9 
		15.6,7 	"/>
	<path class="st18" d="M40.2,104.4h2.9c4.7,0,6.9,1.3,6.9,4.7c0,3.6-2.5,4.8-7.7,4.8h-2.1V104.4z M60.1,95.4v9.5
		c-0.8-3.1-2.6-5.5-5.3-7.3c-2.9-1.9-6.3-2.2-10.9-2.2H3.5v9.3h8v30.8H22v-30.8h7.7v30.8h10.5v-12.9l8.2,12.9h31.9l3-8.3l-23.1-7.5
		v14.2l-9.2-12.1c4.8-1.2,8.1-4.5,9.2-9v6.9h0l0,0v0l10.5,0l13.9,0v0l0-8.9H70.6v-6.5h13.8l0-8.7l0.7,2l7.1,21.3l0,0l9.3-2.9
		l-6.2-20.5H60.1z M127.7,115.2c0-5.9,5-10.5,11.4-10.5c6,0,11.1,4.7,11.1,10.5c0,6.5-5,11.2-11.2,11.2
		C133.1,126.3,127.7,121.5,127.7,115.2 M170.6,104.4h2.9c4.7,0,6.9,1.3,6.9,4.7c0,3.6-2.5,4.8-7.7,4.8h-2.1V104.4z M123.4,100.5
		c-2.2,2-3.8,4.3-4.9,6.8l4-11.9h-10.9l-5.8,19.2l11.3-3.5l-21.3,14.2l7.9,10.1h5.4l8.2-24.8c-0.3,1.4-0.5,2.9-0.5,4.4
		c0,5.9,2.1,10.9,6.1,14.9c4.2,4.2,9.7,6.3,16,6.3c6,0,11.7-2.2,15.8-6.3c2.5-2.4,4.3-5.3,5.3-8.6v14.1h10.5v-12.9l8.2,12.9h13
		l-10.5-13.7c6.1-1.6,9.7-6.4,9.7-12.9c0-5-2-8.7-5.8-11.2c-2.9-1.9-6.3-2.2-10.9-2.2h-14.3v14c-1-3.2-3-6.2-5.7-8.8
		c-4.2-3.8-9.6-5.9-15.3-5.9C133,94.7,127.7,96.7,123.4,100.5"/>
</g>
<g>
	<defs>
		<rect id="SVGID_40_" y="-3.9" width="200.8" height="43"/>
	</defs>
	<clipPath id="SVGID_41_">
		<use xlink:href="#SVGID_40_"  style="overflow:visible;"/>
	</clipPath>
	<g class="st19">
		<defs>
			<path id="SVGID_42_" d="M40.2,104.4h2.9c4.7,0,6.9,1.3,6.9,4.7c0,3.6-2.5,4.8-7.7,4.8h-2.1V104.4z M60.1,95.4v9.5
				c-0.8-3.1-2.6-5.5-5.3-7.3c-2.9-1.9-6.3-2.2-10.9-2.2H3.5v9.3h8v30.8H22v-30.8h7.7v30.8h10.5v-12.9l8.2,12.9h31.9l3-8.3
				l-23.1-7.5v14.2l-9.2-12.1c4.8-1.2,8.1-4.5,9.2-9v6.9h0l0,0v0l10.5,0l13.9,0v0l0-8.9H70.6v-6.5h13.8l0-8.7l0.7,2l7.1,21.3l0,0
				l9.3-2.9l-6.2-20.5H60.1z M127.7,115.2c0-5.9,5-10.5,11.4-10.5c6,0,11.1,4.7,11.1,10.5c0,6.5-5,11.2-11.2,11.2
				C133.1,126.3,127.7,121.5,127.7,115.2 M170.6,104.4h2.9c4.7,0,6.9,1.3,6.9,4.7c0,3.6-2.5,4.8-7.7,4.8h-2.1V104.4z M123.4,100.5
				c-2.2,2-3.8,4.3-4.9,6.8l4-11.9h-10.9l-5.8,19.2l11.3-3.5l-21.3,14.2l7.9,10.1h5.4l8.2-24.8c-0.3,1.4-0.5,2.9-0.5,4.4
				c0,5.9,2.1,10.9,6.1,14.9c4.2,4.2,9.7,6.3,16,6.3c6,0,11.7-2.2,15.8-6.3c2.5-2.4,4.3-5.3,5.3-8.6v14.1h10.5v-12.9l8.2,12.9h13
				l-10.5-13.7c6.1-1.6,9.7-6.4,9.7-12.9c0-5-2-8.7-5.8-11.2c-2.9-1.9-6.3-2.2-10.9-2.2h-14.3v14c-1-3.2-3-6.2-5.7-8.8
				c-4.2-3.8-9.6-5.9-15.3-5.9C133,94.7,127.7,96.7,123.4,100.5"/>
		</defs>
		<clipPath id="SVGID_43_">
			<use xlink:href="#SVGID_42_"  style="overflow:visible;"/>
		</clipPath>
		<rect x="3.5" y="94.7" class="st20" width="188.3" height="41.5"/>
	</g>
</g>
<g>
	<defs>
		<rect id="SVGID_44_" y="-3.9" width="200.8" height="43"/>
	</defs>
	<clipPath id="SVGID_45_">
		<use xlink:href="#SVGID_44_"  style="overflow:visible;"/>
	</clipPath>
	<g class="st21">
		<defs>
			<path id="SVGID_46_" d="M257.8,185.7c-0.2,0-0.3,0.2-0.3,0.4l0.1,28.7l-29,0c-0.2,0-0.3,0.1-0.4,0.3c0,0.2,0.1,0.4,0.2,0.4
				l27.5,8.9l-1.6,4h22.2l-4.4-6.3l25.4-16.9c0.2-0.1,0.2-0.3,0.1-0.5c-0.1-0.2-0.3-0.2-0.4-0.2l-29.6,9.2l-9.3-27.8
				C258.1,185.8,258,185.7,257.8,185.7C257.8,185.7,257.8,185.7,257.8,185.7"/>
		</defs>
		<clipPath id="SVGID_47_">
			<use xlink:href="#SVGID_46_"  style="overflow:visible;"/>
		</clipPath>
		<g class="st22">
			<defs>
				<rect id="SVGID_48_" x="228.1" y="185.7" width="69.5" height="42.8"/>
			</defs>
			<clipPath id="SVGID_49_">
				<use xlink:href="#SVGID_48_"  style="overflow:visible;"/>
			</clipPath>
			
				<radialGradient id="SVGID_50_" cx="-46.0792" cy="388.8539" r="1.0007" gradientTransform="matrix(28.8612 0 0 -28.8103 1592.7711 11410.0752)" gradientUnits="userSpaceOnUse">
				<stop  offset="0" style="stop-color:#FCEE23"/>
				<stop  offset="0.1286" style="stop-color:#FCEE23"/>
				<stop  offset="0.544" style="stop-color:#FBB041"/>
				<stop  offset="0.5756" style="stop-color:#F9AA3E"/>
				<stop  offset="0.8627" style="stop-color:#EB7F29"/>
				<stop  offset="1" style="stop-color:#E76E24"/>
			</radialGradient>
			<rect x="228.1" y="185.7" class="st23" width="69.5" height="42.8"/>
		</g>
	</g>
</g>
</svg>
